ISO-10303-21;
HEADER;
/*Generated by software containing ST-Developer
 * from STEP Tools, Inc. (www.steptools.com) 
 */
/*OPTION: using custom renumber hook */
/*description */
/*implementation_level */
FILE_DESCRIPTION(('STEP AP242 Edition 2','STEP AP242 Edition 2''CAx-IF Rec.Pracs.---Representation and Presentation of Product Manufa
cturing Information (PMI)---4.0---2014-10-13','STEP AP242 Edition 2''CAx-IF Rec.Pracs.---Representation and Presentation of Product Manufa
cturing Information (PMI)---4.0---2014-10-13''CAx-IF Rec.Pracs.---3D Tessellated Geometry---0.4---2014-09-14','STEP AP242 Edition 2''CAx-IF Rec.Pracs.---Representation and Presentation of Product Manufa
cturing Information (PMI)---4.0---2014-10-13''CAx-IF Rec.Pracs.---3D Tessellated Geometry---0.4---2014-09-14''2;1','STEP AP242 Edition 2''CAx-IF Rec.Pracs.---Representation and Presentation of Product Manufa
cturing Information (PMI)---4.0---2014-10-13''CAx-IF Rec.Pracs.---3D Tessellated Geometry---0.4---2014-09-14''2;1''CAx-IF Rec.Pracs.---User Defined Attributes---1.5---2016-08-15'),'2;1');
/*name */
/*time_stamp */
/*author */
/*organization */
/*preprocessor_version */
/*originating_system */
/*authorisation */
FILE_NAME('/vol/tmp/translate-4273854376990701136/3D_PCB_PCB_ESP32-sd-int_2026-03-29nosilk Copy 1 - CaseBatteryLid.step','2026-05-03T09:35:21',(''),(''),'ST-DEVELOPER v20','ONSHAPE BY PTC INC, 1.214','  ');
FILE_SCHEMA(('AP242_MANAGED_MODEL_BASED_3D_ENGINEERING_MIM_LF { 1 0 10303 442 3 1 4 }'));
ENDSEC;
DATA;
#10=SHAPE_REPRESENTATION_RELATIONSHIP('','',#195,#11);
#11=ADVANCED_BREP_SHAPE_REPRESENTATION('',(#193),#313);
#12=CYLINDRICAL_SURFACE('',#211,0.0012);
#13=CYLINDRICAL_SURFACE('',#212,0.0012);
#14=CYLINDRICAL_SURFACE('',#213,0.0012);
#15=CYLINDRICAL_SURFACE('',#214,0.0012);
#16=CIRCLE('',#202,0.0012);
#17=CIRCLE('',#203,0.0012);
#18=CIRCLE('',#204,0.0012);
#19=CIRCLE('',#205,0.0012);
#20=CIRCLE('',#207,0.0012);
#21=CIRCLE('',#208,0.0012);
#22=CIRCLE('',#209,0.0012);
#23=CIRCLE('',#210,0.0012);
#24=ORIENTED_EDGE('',*,*,#64,.F.);
#25=ORIENTED_EDGE('',*,*,#65,.F.);
#26=ORIENTED_EDGE('',*,*,#66,.T.);
#27=ORIENTED_EDGE('',*,*,#67,.T.);
#28=ORIENTED_EDGE('',*,*,#68,.F.);
#29=ORIENTED_EDGE('',*,*,#69,.F.);
#30=ORIENTED_EDGE('',*,*,#70,.T.);
#31=ORIENTED_EDGE('',*,*,#65,.T.);
#32=ORIENTED_EDGE('',*,*,#71,.F.);
#33=ORIENTED_EDGE('',*,*,#72,.F.);
#34=ORIENTED_EDGE('',*,*,#73,.T.);
#35=ORIENTED_EDGE('',*,*,#69,.T.);
#36=ORIENTED_EDGE('',*,*,#74,.F.);
#37=ORIENTED_EDGE('',*,*,#67,.F.);
#38=ORIENTED_EDGE('',*,*,#75,.T.);
#39=ORIENTED_EDGE('',*,*,#72,.T.);
#40=ORIENTED_EDGE('',*,*,#76,.T.);
#41=ORIENTED_EDGE('',*,*,#77,.T.);
#42=ORIENTED_EDGE('',*,*,#78,.T.);
#43=ORIENTED_EDGE('',*,*,#79,.T.);
#44=ORIENTED_EDGE('',*,*,#66,.F.);
#45=ORIENTED_EDGE('',*,*,#70,.F.);
#46=ORIENTED_EDGE('',*,*,#73,.F.);
#47=ORIENTED_EDGE('',*,*,#75,.F.);
#48=ORIENTED_EDGE('',*,*,#80,.T.);
#49=ORIENTED_EDGE('',*,*,#81,.T.);
#50=ORIENTED_EDGE('',*,*,#82,.T.);
#51=ORIENTED_EDGE('',*,*,#83,.T.);
#52=ORIENTED_EDGE('',*,*,#64,.T.);
#53=ORIENTED_EDGE('',*,*,#74,.T.);
#54=ORIENTED_EDGE('',*,*,#71,.T.);
#55=ORIENTED_EDGE('',*,*,#68,.T.);
#56=ORIENTED_EDGE('',*,*,#79,.F.);
#57=ORIENTED_EDGE('',*,*,#83,.F.);
#58=ORIENTED_EDGE('',*,*,#78,.F.);
#59=ORIENTED_EDGE('',*,*,#82,.F.);
#60=ORIENTED_EDGE('',*,*,#77,.F.);
#61=ORIENTED_EDGE('',*,*,#81,.F.);
#62=ORIENTED_EDGE('',*,*,#76,.F.);
#63=ORIENTED_EDGE('',*,*,#80,.F.);
#64=EDGE_CURVE('',#84,#85,#100,.T.);
#65=EDGE_CURVE('',#86,#84,#101,.T.);
#66=EDGE_CURVE('',#86,#87,#102,.T.);
#67=EDGE_CURVE('',#87,#85,#103,.T.);
#68=EDGE_CURVE('',#88,#84,#104,.T.);
#69=EDGE_CURVE('',#89,#88,#105,.T.);
#70=EDGE_CURVE('',#89,#86,#106,.T.);
#71=EDGE_CURVE('',#90,#88,#107,.T.);
#72=EDGE_CURVE('',#91,#90,#108,.T.);
#73=EDGE_CURVE('',#91,#89,#109,.T.);
#74=EDGE_CURVE('',#85,#90,#110,.T.);
#75=EDGE_CURVE('',#87,#91,#111,.T.);
#76=EDGE_CURVE('',#92,#92,#16,.F.);
#77=EDGE_CURVE('',#93,#93,#17,.F.);
#78=EDGE_CURVE('',#94,#94,#18,.F.);
#79=EDGE_CURVE('',#95,#95,#19,.F.);
#80=EDGE_CURVE('',#96,#96,#20,.T.);
#81=EDGE_CURVE('',#97,#97,#21,.T.);
#82=EDGE_CURVE('',#98,#98,#22,.T.);
#83=EDGE_CURVE('',#99,#99,#23,.T.);
#84=VERTEX_POINT('',#268);
#85=VERTEX_POINT('',#269);
#86=VERTEX_POINT('',#271);
#87=VERTEX_POINT('',#273);
#88=VERTEX_POINT('',#277);
#89=VERTEX_POINT('',#279);
#90=VERTEX_POINT('',#283);
#91=VERTEX_POINT('',#285);
#92=VERTEX_POINT('',#292);
#93=VERTEX_POINT('',#294);
#94=VERTEX_POINT('',#296);
#95=VERTEX_POINT('',#298);
#96=VERTEX_POINT('',#301);
#97=VERTEX_POINT('',#303);
#98=VERTEX_POINT('',#305);
#99=VERTEX_POINT('',#307);
#100=LINE('',#267,#112);
#101=LINE('',#270,#113);
#102=LINE('',#272,#114);
#103=LINE('',#274,#115);
#104=LINE('',#276,#116);
#105=LINE('',#278,#117);
#106=LINE('',#280,#118);
#107=LINE('',#282,#119);
#108=LINE('',#284,#120);
#109=LINE('',#286,#121);
#110=LINE('',#288,#122);
#111=LINE('',#289,#123);
#112=VECTOR('',#219,1.);
#113=VECTOR('',#220,1.);
#114=VECTOR('',#221,1.);
#115=VECTOR('',#222,1.);
#116=VECTOR('',#225,1.);
#117=VECTOR('',#226,1.);
#118=VECTOR('',#227,1.);
#119=VECTOR('',#230,1.);
#120=VECTOR('',#231,1.);
#121=VECTOR('',#232,1.);
#122=VECTOR('',#235,1.);
#123=VECTOR('',#236,1.);
#124=EDGE_LOOP('',(#24,#25,#26,#27));
#125=EDGE_LOOP('',(#28,#29,#30,#31));
#126=EDGE_LOOP('',(#32,#33,#34,#35));
#127=EDGE_LOOP('',(#36,#37,#38,#39));
#128=EDGE_LOOP('',(#40));
#129=EDGE_LOOP('',(#41));
#130=EDGE_LOOP('',(#42));
#131=EDGE_LOOP('',(#43));
#132=EDGE_LOOP('',(#44,#45,#46,#47));
#133=EDGE_LOOP('',(#48));
#134=EDGE_LOOP('',(#49));
#135=EDGE_LOOP('',(#50));
#136=EDGE_LOOP('',(#51));
#137=EDGE_LOOP('',(#52,#53,#54,#55));
#138=EDGE_LOOP('',(#56));
#139=EDGE_LOOP('',(#57));
#140=EDGE_LOOP('',(#58));
#141=EDGE_LOOP('',(#59));
#142=EDGE_LOOP('',(#60));
#143=EDGE_LOOP('',(#61));
#144=EDGE_LOOP('',(#62));
#145=EDGE_LOOP('',(#63));
#146=FACE_BOUND('',#124,.T.);
#147=FACE_BOUND('',#125,.T.);
#148=FACE_BOUND('',#126,.T.);
#149=FACE_BOUND('',#127,.T.);
#150=FACE_BOUND('',#128,.T.);
#151=FACE_BOUND('',#129,.T.);
#152=FACE_BOUND('',#130,.T.);
#153=FACE_BOUND('',#131,.T.);
#154=FACE_BOUND('',#132,.T.);
#155=FACE_BOUND('',#133,.T.);
#156=FACE_BOUND('',#134,.T.);
#157=FACE_BOUND('',#135,.T.);
#158=FACE_BOUND('',#136,.T.);
#159=FACE_BOUND('',#137,.T.);
#160=FACE_BOUND('',#138,.T.);
#161=FACE_BOUND('',#139,.T.);
#162=FACE_BOUND('',#140,.T.);
#163=FACE_BOUND('',#141,.T.);
#164=FACE_BOUND('',#142,.T.);
#165=FACE_BOUND('',#143,.T.);
#166=FACE_BOUND('',#144,.T.);
#167=FACE_BOUND('',#145,.T.);
#168=PLANE('',#197);
#169=PLANE('',#198);
#170=PLANE('',#199);
#171=PLANE('',#200);
#172=PLANE('',#201);
#173=PLANE('',#206);
#174=ADVANCED_FACE('',(#146),#168,.T.);
#175=ADVANCED_FACE('',(#147),#169,.T.);
#176=ADVANCED_FACE('',(#148),#170,.T.);
#177=ADVANCED_FACE('',(#149),#171,.T.);
#178=ADVANCED_FACE('',(#150,#151,#152,#153,#154),#172,.T.);
#179=ADVANCED_FACE('',(#155,#156,#157,#158,#159),#173,.F.);
#180=ADVANCED_FACE('',(#160,#161),#12,.F.);
#181=ADVANCED_FACE('',(#162,#163),#13,.F.);
#182=ADVANCED_FACE('',(#164,#165),#14,.F.);
#183=ADVANCED_FACE('',(#166,#167),#15,.F.);
#184=CLOSED_SHELL('',(#174,#175,#176,#177,#178,#179,#180,#181,#182,#183));
#185=STYLED_ITEM('',(#186),#193);
#186=PRESENTATION_STYLE_ASSIGNMENT((#187));
#187=SURFACE_STYLE_USAGE(.BOTH.,#188);
#188=SURFACE_SIDE_STYLE('',(#189));
#189=SURFACE_STYLE_FILL_AREA(#190);
#190=FILL_AREA_STYLE('',(#191));
#191=FILL_AREA_STYLE_COLOUR('',#192);
#192=COLOUR_RGB('',0.498039215686275,0.498039215686275,0.498039215686275);
#193=MANIFOLD_SOLID_BREP('CaseBatteryLid',#184);
#194=SHAPE_DEFINITION_REPRESENTATION(#318,#195);
#195=SHAPE_REPRESENTATION('CaseBatteryLid',(#196),#313);
#196=AXIS2_PLACEMENT_3D('',#265,#215,#216);
#197=AXIS2_PLACEMENT_3D('',#266,#217,#218);
#198=AXIS2_PLACEMENT_3D('',#275,#223,#224);
#199=AXIS2_PLACEMENT_3D('',#281,#228,#229);
#200=AXIS2_PLACEMENT_3D('',#287,#233,#234);
#201=AXIS2_PLACEMENT_3D('',#290,#237,#238);
#202=AXIS2_PLACEMENT_3D('',#291,#239,#240);
#203=AXIS2_PLACEMENT_3D('',#293,#241,#242);
#204=AXIS2_PLACEMENT_3D('',#295,#243,#244);
#205=AXIS2_PLACEMENT_3D('',#297,#245,#246);
#206=AXIS2_PLACEMENT_3D('',#299,#247,#248);
#207=AXIS2_PLACEMENT_3D('',#300,#249,#250);
#208=AXIS2_PLACEMENT_3D('',#302,#251,#252);
#209=AXIS2_PLACEMENT_3D('',#304,#253,#254);
#210=AXIS2_PLACEMENT_3D('',#306,#255,#256);
#211=AXIS2_PLACEMENT_3D('',#308,#257,#258);
#212=AXIS2_PLACEMENT_3D('',#309,#259,#260);
#213=AXIS2_PLACEMENT_3D('',#310,#261,#262);
#214=AXIS2_PLACEMENT_3D('',#311,#263,#264);
#215=DIRECTION('',(0.,0.,1.));
#216=DIRECTION('',(1.,0.,0.));
#217=DIRECTION('',(1.07579750448174E-16,-1.,0.));
#218=DIRECTION('',(1.,1.07579750448174E-16,0.));
#219=DIRECTION('',(1.,1.07579750448174E-16,0.));
#220=DIRECTION('',(0.,0.,1.));
#221=DIRECTION('',(1.,1.07579750448174E-16,0.));
#222=DIRECTION('',(0.,0.,1.));
#223=DIRECTION('',(-1.,0.,0.));
#224=DIRECTION('',(0.,0.,1.));
#225=DIRECTION('',(0.,-1.,0.));
#226=DIRECTION('',(0.,0.,1.));
#227=DIRECTION('',(0.,-1.,0.));
#228=DIRECTION('',(0.,1.,0.));
#229=DIRECTION('',(0.,0.,1.));
#230=DIRECTION('',(-1.,0.,0.));
#231=DIRECTION('',(0.,0.,1.));
#232=DIRECTION('',(-1.,0.,0.));
#233=DIRECTION('',(1.,0.,0.));
#234=DIRECTION('',(0.,0.,-1.));
#235=DIRECTION('',(0.,1.,0.));
#236=DIRECTION('',(0.,1.,0.));
#237=DIRECTION('',(0.,0.,-1.));
#238=DIRECTION('',(1.,0.,0.));
#239=DIRECTION('',(0.,0.,-1.));
#240=DIRECTION('',(-1.,0.,0.));
#241=DIRECTION('',(0.,0.,-1.));
#242=DIRECTION('',(-1.,0.,0.));
#243=DIRECTION('',(0.,0.,-1.));
#244=DIRECTION('',(-1.,0.,0.));
#245=DIRECTION('',(0.,0.,-1.));
#246=DIRECTION('',(-1.,0.,0.));
#247=DIRECTION('',(0.,0.,-1.));
#248=DIRECTION('',(1.,0.,0.));
#249=DIRECTION('',(0.,0.,-1.));
#250=DIRECTION('',(-1.,0.,0.));
#251=DIRECTION('',(0.,0.,-1.));
#252=DIRECTION('',(-1.,0.,0.));
#253=DIRECTION('',(0.,0.,-1.));
#254=DIRECTION('',(-1.,0.,0.));
#255=DIRECTION('',(0.,0.,-1.));
#256=DIRECTION('',(-1.,0.,0.));
#257=DIRECTION('',(0.,0.,-1.));
#258=DIRECTION('',(-1.,0.,0.));
#259=DIRECTION('',(0.,0.,-1.));
#260=DIRECTION('',(-1.,0.,0.));
#261=DIRECTION('',(0.,0.,-1.));
#262=DIRECTION('',(-1.,0.,0.));
#263=DIRECTION('',(0.,0.,-1.));
#264=DIRECTION('',(-1.,0.,0.));
#265=CARTESIAN_POINT('',(0.,0.,0.));
#266=CARTESIAN_POINT('',(-0.00251682672601569,-0.0376688638060097,-0.0222));
#267=CARTESIAN_POINT('',(-0.00251682672601569,-0.0376688638060097,-0.02));
#268=CARTESIAN_POINT('',(-0.0347668267260157,-0.0376688638060097,-0.02));
#269=CARTESIAN_POINT('',(0.0297331732739843,-0.0376688638060097,-0.02));
#270=CARTESIAN_POINT('',(-0.0347668267260157,-0.0376688638060097,-0.0222));
#271=CARTESIAN_POINT('',(-0.0347668267260157,-0.0376688638060097,-0.0222));
#272=CARTESIAN_POINT('',(-0.00251682672601569,-0.0376688638060097,-0.0222));
#273=CARTESIAN_POINT('',(0.0297331732739843,-0.0376688638060097,-0.0222));
#274=CARTESIAN_POINT('',(0.0297331732739843,-0.0376688638060097,-0.0222));
#275=CARTESIAN_POINT('',(-0.0347668267260157,-0.0241688638060097,-0.0222));
#276=CARTESIAN_POINT('',(-0.0347668267260157,-0.0241688638060097,-0.02));
#277=CARTESIAN_POINT('',(-0.0347668267260157,-0.0106688638060097,-0.02));
#278=CARTESIAN_POINT('',(-0.0347668267260157,-0.0106688638060097,-0.0222));
#279=CARTESIAN_POINT('',(-0.0347668267260157,-0.0106688638060097,-0.0222));
#280=CARTESIAN_POINT('',(-0.0347668267260157,-0.0241688638060097,-0.0222));
#281=CARTESIAN_POINT('',(-0.00251682672601569,-0.0106688638060097,-0.0222));
#282=CARTESIAN_POINT('',(-0.00251682672601569,-0.0106688638060097,-0.02));
#283=CARTESIAN_POINT('',(0.0297331732739843,-0.0106688638060097,-0.02));
#284=CARTESIAN_POINT('',(0.0297331732739843,-0.0106688638060097,-0.0222));
#285=CARTESIAN_POINT('',(0.0297331732739843,-0.0106688638060097,-0.0222));
#286=CARTESIAN_POINT('',(-0.00251682672601569,-0.0106688638060097,-0.0222));
#287=CARTESIAN_POINT('',(0.0297331732739843,-0.0241688638060097,-0.0222));
#288=CARTESIAN_POINT('',(0.0297331732739843,-0.0241688638060097,-0.02));
#289=CARTESIAN_POINT('',(0.0297331732739843,-0.0241688638060097,-0.0222));
#290=CARTESIAN_POINT('',(-0.0540310327046354,-0.024977818634361,-0.0222));
#291=CARTESIAN_POINT('',(0.0272331732739843,-0.0131688638060097,-0.0222));
#292=CARTESIAN_POINT('',(0.0260331732739843,-0.0131688638060097,-0.0222));
#293=CARTESIAN_POINT('',(0.0272331732739843,-0.0351688638060096,-0.0222));
#294=CARTESIAN_POINT('',(0.0260331732739843,-0.0351688638060096,-0.0222));
#295=CARTESIAN_POINT('',(-0.0322668267260157,-0.0351688638060096,-0.0222));
#296=CARTESIAN_POINT('',(-0.0334668267260157,-0.0351688638060096,-0.0222));
#297=CARTESIAN_POINT('',(-0.0322668267260157,-0.0131688638060097,-0.0222));
#298=CARTESIAN_POINT('',(-0.0334668267260157,-0.0131688638060097,-0.0222));
#299=CARTESIAN_POINT('',(-0.0540310327046354,-0.024977818634361,-0.02));
#300=CARTESIAN_POINT('',(0.0272331732739843,-0.0131688638060097,-0.02));
#301=CARTESIAN_POINT('',(0.0260331732739843,-0.0131688638060097,-0.02));
#302=CARTESIAN_POINT('',(0.0272331732739843,-0.0351688638060096,-0.02));
#303=CARTESIAN_POINT('',(0.0260331732739843,-0.0351688638060096,-0.02));
#304=CARTESIAN_POINT('',(-0.0322668267260157,-0.0351688638060096,-0.02));
#305=CARTESIAN_POINT('',(-0.0334668267260157,-0.0351688638060096,-0.02));
#306=CARTESIAN_POINT('',(-0.0322668267260157,-0.0131688638060097,-0.02));
#307=CARTESIAN_POINT('',(-0.0334668267260157,-0.0131688638060097,-0.02));
#308=CARTESIAN_POINT('',(-0.0322668267260157,-0.0131688638060097,-0.02));
#309=CARTESIAN_POINT('',(-0.0322668267260157,-0.0351688638060096,-0.02));
#310=CARTESIAN_POINT('',(0.0272331732739843,-0.0351688638060096,-0.02));
#311=CARTESIAN_POINT('',(0.0272331732739843,-0.0131688638060097,-0.02));
#312=MECHANICAL_DESIGN_GEOMETRIC_PRESENTATION_REPRESENTATION('',(#185),#313);
#313=(
GEOMETRIC_REPRESENTATION_CONTEXT(3)
GLOBAL_UNCERTAINTY_ASSIGNED_CONTEXT((#314))
GLOBAL_UNIT_ASSIGNED_CONTEXT((#317,#316,#315))
REPRESENTATION_CONTEXT('CaseBatteryLid','TOP_LEVEL_ASSEMBLY_PART')
);
#314=UNCERTAINTY_MEASURE_WITH_UNIT(LENGTH_MEASURE(1.E-08),#317,'DISTANCE_ACCURACY_VALUE','Maximum Tolerance applied to model');
#315=(
NAMED_UNIT(*)
SI_UNIT($,.STERADIAN.)
SOLID_ANGLE_UNIT()
);
#316=(
NAMED_UNIT(*)
PLANE_ANGLE_UNIT()
SI_UNIT($,.RADIAN.)
);
#317=(
LENGTH_UNIT()
NAMED_UNIT(*)
SI_UNIT($,.METRE.)
);
#318=PRODUCT_DEFINITION_SHAPE('','',#319);
#319=PRODUCT_DEFINITION('','',#321,#320);
#320=PRODUCT_DEFINITION_CONTEXT('',#327,'design');
#321=PRODUCT_DEFINITION_FORMATION_WITH_SPECIFIED_SOURCE('','',#323,.NOT_KNOWN.);
#322=PRODUCT_RELATED_PRODUCT_CATEGORY('','',(#323));
#323=PRODUCT('CaseBatteryLid','CaseBatteryLid','CaseBatteryLid',(#325));
#324=PRODUCT_CATEGORY('','');
#325=PRODUCT_CONTEXT('',#327,'mechanical');
#326=APPLICATION_PROTOCOL_DEFINITION('international standard','ap242_managed_model_based_3d_engineering',2020,#327);
#327=APPLICATION_CONTEXT('managed model based 3d engineering');
#328=COMPOSITE_SHAPE_ASPECT('hole_callout.FrHloiev5HLlnf1_399.RHED.3',$,#318,$);
#329=SHAPE_ASPECT('hole_callout.FrHloiev5HLlnf1_399.RHED.3',$,#318,.T.);
#330=GEOMETRIC_ITEM_SPECIFIC_USAGE('','',#329,#11,#182);
#331=SHAPE_ASPECT_RELATIONSHIP('','',#328,#329);
#332=SHAPE_ASPECT('hole_callout.FrHloiev5HLlnf1_399.RHED.3',$,#318,.T.);
#333=GEOMETRIC_ITEM_SPECIFIC_USAGE('','',#332,#11,#183);
#334=SHAPE_ASPECT_RELATIONSHIP('','',#328,#332);
#335=SHAPE_ASPECT('hole_callout.FrHloiev5HLlnf1_399.RHED.3',$,#318,.T.);
#336=GEOMETRIC_ITEM_SPECIFIC_USAGE('','',#335,#11,#180);
#337=SHAPE_ASPECT_RELATIONSHIP('','',#328,#335);
#338=SHAPE_ASPECT('hole_callout.FrHloiev5HLlnf1_399.RHED.3',$,#318,.T.);
#339=GEOMETRIC_ITEM_SPECIFIC_USAGE('','',#338,#11,#181);
#340=SHAPE_ASPECT_RELATIONSHIP('','',#328,#338);
#341=DIMENSIONAL_SIZE(#328,'diameter');
#342=(
LENGTH_UNIT()
NAMED_UNIT(*)
SI_UNIT(.MILLI.,.METRE.)
);
#344=PRECISION_QUALIFIER(3);
#343=(
LENGTH_MEASURE_WITH_UNIT()
MEASURE_REPRESENTATION_ITEM()
MEASURE_WITH_UNIT(POSITIVE_LENGTH_MEASURE(2.4),#342)
QUALIFIED_REPRESENTATION_ITEM((#344))
REPRESENTATION_ITEM('nominal value')
);
#345=COMPOUND_REPRESENTATION_ITEM('modifiers',SET_REPRESENTATION_ITEM((#346)));
#346=DESCRIPTIVE_REPRESENTATION_ITEM('dimensional note','diameter');
#347=SHAPE_DIMENSION_REPRESENTATION('',(#343,#345),#313);
#348=DIMENSIONAL_CHARACTERISTIC_REPRESENTATION(#341,#347);
#349=PRESENTATION_STYLE_ASSIGNMENT((NULL_STYLE(.NULL.)));
#350=CARTESIAN_POINT('',(0.0272331732739843,-0.0351688638060097,-0.02));
#351=DIRECTION('',(0.,0.,1.));
#352=DIRECTION('',(1.,0.,0.));
#353=AXIS2_PLACEMENT_3D('',#350,#351,#352);
#354=PLANE('',#353);
#355=ANNOTATION_PLANE('',(#349),#354,(#382));
#356=CARTESIAN_POINT('',(0.,0.,0.));
#357=DIRECTION('',(0.,0.,1.));
#358=DIRECTION('',(1.,0.,0.));
#359=AXIS2_PLACEMENT_3D('',#356,#357,#358);
#360=CARTESIAN_POINT('',(0.,0.,0.));
#361=DIRECTION('',(0.,0.,1.));
#362=DIRECTION('',(1.,0.,0.));
#363=AXIS2_PLACEMENT_3D('',#360,#361,#362);
#364=SHAPE_REPRESENTATION('',(#363,#193),#313);
#365=REPRESENTATION_MAP(#359,#364);
#366=MAPPED_ITEM('',#365,#359);
#367=PRESENTATION_STYLE_ASSIGNMENT((NULL_STYLE(.NULL.)));
#368=STYLED_ITEM('',(#367),#366);
#369=DRAUGHTING_MODEL('',(#355,#359,#366,#368),#313);
#370=DRAUGHTING_PRE_DEFINED_CURVE_FONT('continuous');
#371=COLOUR_RGB('',0.,0.,0.);
#372=CURVE_STYLE('',#370,POSITIVE_LENGTH_MEASURE(0.02),#371);
#373=PRESENTATION_STYLE_ASSIGNMENT((#372));
#374=COORDINATES_LIST('coordinates',1710,((0.0280817,-0.0343203,-0.0200000),(0.0294959,-0.0314919,-0.0200000),(0.0309101,-0.0329061,-0.0200000),(0.0378977,-0.0280366,-0.0200000),(0.0379948,-0.0280773,-0.0200000),(0.0380928,-0.0281125,-0.0200000),(0.0378977,-0.0280366,-0.0200000),(0.0380928,-0.0281125,-0.0200000),(0.0381918,-0.0281424,-0.0200000),(0.0378977,-0.0280366,-0.0200000),(0.0381918,-0.0281424,-0.0200000),(0.0382917,-0.0281668,-0.0200000),(0.0378977,-0.0280366,-0.0200000),(0.0382917,-0.0281668,-0.0200000),(0.0383926,-0.0281858,-0.0200000),(0.0378977,-0.0280366,-0.0200000),(0.0383926,-0.0281858,-0.0200000),(0.0384944,-0.0281993,-0.0200000),(0.0378977,-0.0280366,-0.0200000),(0.0384944,-0.0281993,-0.0200000),(0.0385972,-0.0282075,-0.0200000),(0.0378977,-0.0280366,-0.0200000),(0.0385972,-0.0282075,-0.0200000),(0.0387010,-0.0282102,-0.0200000),(0.0378977,-0.0280366,-0.0200000),(0.0387010,-0.0282102,-0.0200000),(0.0388368,-0.0282059,-0.0200000),(0.0378977,-0.0280366,-0.0200000),(0.0388368,-0.0282059,-0.0200000),(0.0389700,-0.0281929,-0.0200000),(0.0378977,-0.0280366,-0.0200000),(0.0389700,-0.0281929,-0.0200000),(0.0391007,-0.0281713,-0.0200000),(0.0378977,-0.0280366,-0.0200000),(0.0391007,-0.0281713,-0.0200000),(0.0392288,-0.0281411,-0.0200000),(0.0378977,-0.0280366,-0.0200000),(0.0392288,-0.0281411,-0.0200000),(0.0393544,-0.0281023,-0.0200000),(0.0378977,-0.0280366,-0.0200000),(0.0393544,-0.0281023,-0.0200000),(0.0394775,-0.0280548,-0.0200000),(0.0378977,-0.0280366,-0.0200000),(0.0394775,-0.0280548,-0.0200000),(0.0395980,-0.0279987,-0.0200000),(0.0378977,-0.0280366,-0.0200000),(0.0395980,-0.0279987,-0.0200000),(0.0397159,-0.0279339,-0.0200000),(0.0378977,-0.0280366,-0.0200000),(0.0397159,-0.0279339,-0.0200000),(0.0398295,-0.0278615,-0.0200000),(0.0378977,-0.0280366,-0.0200000),(0.0398295,-0.0278615,-0.0200000),(0.0399369,-0.0277830,-0.0200000),(0.0378977,-0.0280366,-0.0200000),(0.0399369,-0.0277830,-0.0200000),(0.0400380,-0.0276983,-0.0200000),(0.0378977,-0.0280366,-0.0200000),(0.0400380,-0.0276983,-0.0200000),(0.0401329,-0.0276074,-0.0200000),(0.0378977,-0.0280366,-0.0200000),(0.0401329,-0.0276074,-0.0200000),(0.0402216,-0.0275104,-0.0200000),(0.0402216,-0.0275104,-0.0200000),(0.0403041,-0.0274073,-0.0200000),(0.0403804,-0.0272980,-0.0200000),(0.0402216,-0.0275104,-0.0200000),(0.0403804,-0.0272980,-0.0200000),(0.0404504,-0.0271825,-0.0200000),(0.0402216,-0.0275104,-0.0200000),(0.0404504,-0.0271825,-0.0200000),(0.0405134,-0.0270628,-0.0200000),(0.0402216,-0.0275104,-0.0200000),(0.0405134,-0.0270628,-0.0200000),(0.0405680,-0.0269405,-0.0200000),(0.0402216,-0.0275104,-0.0200000),(0.0405680,-0.0269405,-0.0200000),(0.0406142,-0.0268158,-0.0200000),(0.0402216,-0.0275104,-0.0200000),(0.0406142,-0.0268158,-0.0200000),(0.0406520,-0.0266886,-0.0200000),(0.0402216,-0.0275104,-0.0200000),(0.0406520,-0.0266886,-0.0200000),(0.0406814,-0.0265589,-0.0200000),(0.0402216,-0.0275104,-0.0200000),(0.0406814,-0.0265589,-0.0200000),(0.0407024,-0.0264267,-0.0200000),(0.0402216,-0.0275104,-0.0200000),(0.0407024,-0.0264267,-0.0200000),(0.0407150,-0.0262920,-0.0200000),(0.0402216,-0.0275104,-0.0200000),(0.0407150,-0.0262920,-0.0200000),(0.0407192,-0.0261549,-0.0200000),(0.0402216,-0.0275104,-0.0200000),(0.0407192,-0.0261549,-0.0200000),(0.0407150,-0.0260233,-0.0200000),(0.0402216,-0.0275104,-0.0200000),(0.0407150,-0.0260233,-0.0200000),(0.0407024,-0.0258924,-0.0200000),(0.0402216,-0.0275104,-0.0200000),(0.0407024,-0.0258924,-0.0200000),(0.0406814,-0.0257624,-0.0200000),(0.0402216,-0.0275104,-0.0200000),(0.0406814,-0.0257624,-0.0200000),(0.0406520,-0.0256331,-0.0200000),(0.0402216,-0.0275104,-0.0200000),(0.0406520,-0.0256331,-0.0200000),(0.0406142,-0.0255047,-0.0200000),(0.0402216,-0.0275104,-0.0200000),(0.0406142,-0.0255047,-0.0200000),(0.0405680,-0.0253770,-0.0200000),(0.0405680,-0.0253770,-0.0200000),(0.0401763,-0.0255185,-0.0200000),(0.0402128,-0.0256164,-0.0200000),(0.0405680,-0.0253770,-0.0200000),(0.0402128,-0.0256164,-0.0200000),(0.0402427,-0.0257175,-0.0200000),(0.0405680,-0.0253770,-0.0200000),(0.0402427,-0.0257175,-0.0200000),(0.0402660,-0.0258220,-0.0200000),(0.0405680,-0.0253770,-0.0200000),(0.0402660,-0.0258220,-0.0200000),(0.0402826,-0.0259297,-0.0200000),(0.0405680,-0.0253770,-0.0200000),(0.0402826,-0.0259297,-0.0200000),(0.0402926,-0.0260406,-0.0200000),(0.0405680,-0.0253770,-0.0200000),(0.0402926,-0.0260406,-0.0200000),(0.0402959,-0.0261549,-0.0200000),(0.0405680,-0.0253770,-0.0200000),(0.0402959,-0.0261549,-0.0200000),(0.0402926,-0.0262649,-0.0200000),(0.0402216,-0.0275104,-0.0200000),(0.0405680,-0.0253770,-0.0200000),(0.0402926,-0.0262649,-0.0200000),(0.0402216,-0.0275104,-0.0200000),(0.0402926,-0.0262649,-0.0200000),(0.0402825,-0.0263728,-0.0200000),(0.0402216,-0.0275104,-0.0200000),(0.0402825,-0.0263728,-0.0200000),(0.0402657,-0.0264784,-0.0200000),(0.0402216,-0.0275104,-0.0200000),(0.0402657,-0.0264784,-0.0200000),(0.0402422,-0.0265819,-0.0200000),(0.0402216,-0.0275104,-0.0200000),(0.0402422,-0.0265819,-0.0200000),(0.0402120,-0.0266832,-0.0200000),(0.0402216,-0.0275104,-0.0200000),(0.0402120,-0.0266832,-0.0200000),(0.0401751,-0.0267823,-0.0200000),(0.0402216,-0.0275104,-0.0200000),(0.0401751,-0.0267823,-0.0200000),(0.0401314,-0.0268793,-0.0200000),(0.0402216,-0.0275104,-0.0200000),(0.0401314,-0.0268793,-0.0200000),(0.0400811,-0.0269740,-0.0200000),(0.0402216,-0.0275104,-0.0200000),(0.0400811,-0.0269740,-0.0200000),(0.0400252,-0.0270653,-0.0200000),(0.0402216,-0.0275104,-0.0200000),(0.0400252,-0.0270653,-0.0200000),(0.0399646,-0.0271516,-0.0200000),(0.0402216,-0.0275104,-0.0200000),(0.0399646,-0.0271516,-0.0200000),(0.0398992,-0.0272330,-0.0200000),(0.0402216,-0.0275104,-0.0200000),(0.0398992,-0.0272330,-0.0200000),(0.0398289,-0.0273095,-0.0200000),(0.0402216,-0.0275104,-0.0200000),(0.0398289,-0.0273095,-0.0200000),(0.0397539,-0.0273812,-0.0200000),(0.0402216,-0.0275104,-0.0200000),(0.0397539,-0.0273812,-0.0200000),(0.0396741,-0.0274479,-0.0200000),(0.0402216,-0.0275104,-0.0200000),(0.0396741,-0.0274479,-0.0200000),(0.0395895,-0.0275098,-0.0200000),(0.0402216,-0.0275104,-0.0200000),(0.0395895,-0.0275098,-0.0200000),(0.0395000,-0.0275667,-0.0200000),(0.0402216,-0.0275104,-0.0200000),(0.0395000,-0.0275667,-0.0200000),(0.0394075,-0.0276178,-0.0200000),(0.0402216,-0.0275104,-0.0200000),(0.0394075,-0.0276178,-0.0200000),(0.0393128,-0.0276621,-0.0200000),(0.0402216,-0.0275104,-0.0200000),(0.0393128,-0.0276621,-0.0200000),(0.0392160,-0.0276996,-0.0200000),(0.0402216,-0.0275104,-0.0200000),(0.0392160,-0.0276996,-0.0200000),(0.0391172,-0.0277302,-0.0200000),(0.0378977,-0.0280366,-0.0200000),(0.0402216,-0.0275104,-0.0200000),(0.0391172,-0.0277302,-0.0200000),(0.0378977,-0.0280366,-0.0200000),(0.0391172,-0.0277302,-0.0200000),(0.0390163,-0.0277541,-0.0200000),(0.0378977,-0.0280366,-0.0200000),(0.0390163,-0.0277541,-0.0200000),(0.0389133,-0.0277711,-0.0200000),(0.0378977,-0.0280366,-0.0200000),(0.0389133,-0.0277711,-0.0200000),(0.0388082,-0.0277813,-0.0200000),(0.0378977,-0.0280366,-0.0200000),(0.0388082,-0.0277813,-0.0200000),(0.0387010,-0.0277847,-0.0200000),(0.0378977,-0.0280366,-0.0200000),(0.0387010,-0.0277847,-0.0200000),(0.0385474,-0.0277776,-0.0200000),(0.0378977,-0.0280366,-0.0200000),(0.0385474,-0.0277776,-0.0200000),(0.0383978,-0.0277564,-0.0200000),(0.0378977,-0.0280366,-0.0200000),(0.0383978,-0.0277564,-0.0200000),(0.0382521,-0.0277210,-0.0200000),(0.0378977,-0.0280366,-0.0200000),(0.0382521,-0.0277210,-0.0200000),(0.0381105,-0.0276715,-0.0200000),(0.0378977,-0.0280366,-0.0200000),(0.0381105,-0.0276715,-0.0200000),(0.0397075,-0.0248881,-0.0200000),(0.0373368,-0.0290113,-0.0200000),(0.0378977,-0.0280366,-0.0200000),(0.0397075,-0.0248881,-0.0200000),(0.0401330,-0.0254239,-0.0200000),(0.0401763,-0.0255185,-0.0200000),(0.0405680,-0.0253770,-0.0200000),(0.0400832,-0.0253326,-0.0200000),(0.0401330,-0.0254239,-0.0200000),(0.0405680,-0.0253770,-0.0200000),(0.0400153,-0.0252286,-0.0200000),(0.0400832,-0.0253326,-0.0200000),(0.0405680,-0.0253770,-0.0200000),(0.0399300,-0.0251198,-0.0200000),(0.0400153,-0.0252286,-0.0200000),(0.0405680,-0.0253770,-0.0200000),(0.0398809,-0.0250637,-0.0200000),(0.0399300,-0.0251198,-0.0200000),(0.0405680,-0.0253770,-0.0200000),(0.0398274,-0.0250063,-0.0200000),(0.0398809,-0.0250637,-0.0200000),(0.0405680,-0.0253770,-0.0200000),(0.0397696,-0.0249478,-0.0200000),(0.0398274,-0.0250063,-0.0200000),(0.0405680,-0.0253770,-0.0200000),(0.0397075,-0.0248881,-0.0200000),(0.0397696,-0.0249478,-0.0200000),(0.0405680,-0.0253770,-0.0200000),(0.0397075,-0.0248881,-0.0200000),(0.0405680,-0.0253770,-0.0200000),(0.0405134,-0.0252501,-0.0200000),(0.0397075,-0.0248881,-0.0200000),(0.0405134,-0.0252501,-0.0200000),(0.0404504,-0.0251241,-0.0200000),(0.0397075,-0.0248881,-0.0200000),(0.0404504,-0.0251241,-0.0200000),(0.0404002,-0.0250374,-0.0200000),(0.0397075,-0.0248881,-0.0200000),(0.0404002,-0.0250374,-0.0200000),(0.0403455,-0.0249539,-0.0200000),(0.0397075,-0.0248881,-0.0200000),(0.0403455,-0.0249539,-0.0200000),(0.0402861,-0.0248738,-0.0200000),(0.0397075,-0.0248881,-0.0200000),(0.0402861,-0.0248738,-0.0200000),(0.0402221,-0.0247970,-0.0200000),(0.0397075,-0.0248881,-0.0200000),(0.0402221,-0.0247970,-0.0200000),(0.0401535,-0.0247236,-0.0200000),(0.0397075,-0.0248881,-0.0200000),(0.0401535,-0.0247236,-0.0200000),(0.0400803,-0.0246534,-0.0200000),(0.0397075,-0.0248881,-0.0200000),(0.0400803,-0.0246534,-0.0200000),(0.0400026,-0.0245865,-0.0200000),(0.0397075,-0.0248881,-0.0200000),(0.0400026,-0.0245865,-0.0200000),(0.0399202,-0.0245229,-0.0200000),(0.0397075,-0.0248881,-0.0200000),(0.0399202,-0.0245229,-0.0200000),(0.0404621,-0.0235704,-0.0200000),(0.0373368,-0.0290113,-0.0200000),(0.0397075,-0.0248881,-0.0200000),(0.0404621,-0.0235704,-0.0200000),(0.0373368,-0.0290113,-0.0200000),(0.0404621,-0.0235704,-0.0200000),(0.0404906,-0.0234667,-0.0200000),(0.0373368,-0.0290113,-0.0200000),(0.0404906,-0.0234667,-0.0200000),(0.0404832,-0.0234064,-0.0200000),(0.0373368,-0.0290113,-0.0200000),(0.0404832,-0.0234064,-0.0200000),(0.0404446,-0.0233313,-0.0200000),(0.0373368,-0.0290113,-0.0200000),(0.0404446,-0.0233313,-0.0200000),(0.0403795,-0.0232773,-0.0200000),(0.0373368,-0.0290113,-0.0200000),(0.0403795,-0.0232773,-0.0200000),(0.0402769,-0.0232466,-0.0200000),(0.0373368,-0.0290113,-0.0200000),(0.0402769,-0.0232466,-0.0200000),(0.0402165,-0.0232540,-0.0200000),(0.0373368,-0.0290113,-0.0200000),(0.0402165,-0.0232540,-0.0200000),(0.0401409,-0.0232926,-0.0200000),(0.0373368,-0.0290113,-0.0200000),(0.0401409,-0.0232926,-0.0200000),(0.0400853,-0.0233577,-0.0200000),(0.0373368,-0.0290113,-0.0200000),(0.0400853,-0.0233577,-0.0200000),(0.0395498,-0.0242859,-0.0200000),(0.0395498,-0.0242859,-0.0200000),(0.0394492,-0.0242415,-0.0200000),(0.0393453,-0.0242030,-0.0200000),(0.0395498,-0.0242859,-0.0200000),(0.0393453,-0.0242030,-0.0200000),(0.0392380,-0.0241704,-0.0200000),(0.0395498,-0.0242859,-0.0200000),(0.0392380,-0.0241704,-0.0200000),(0.0391275,-0.0241438,-0.0200000),(0.0395498,-0.0242859,-0.0200000),(0.0391275,-0.0241438,-0.0200000),(0.0390137,-0.0241231,-0.0200000),(0.0395498,-0.0242859,-0.0200000),(0.0390137,-0.0241231,-0.0200000),(0.0388965,-0.0241083,-0.0200000),(0.0395498,-0.0242859,-0.0200000),(0.0388965,-0.0241083,-0.0200000),(0.0387761,-0.0240994,-0.0200000),(0.0395498,-0.0242859,-0.0200000),(0.0387761,-0.0240994,-0.0200000),(0.0386523,-0.0240964,-0.0200000),(0.0395498,-0.0242859,-0.0200000),(0.0386523,-0.0240964,-0.0200000),(0.0385277,-0.0241008,-0.0200000),(0.0395498,-0.0242859,-0.0200000),(0.0385277,-0.0241008,-0.0200000),(0.0384042,-0.0241138,-0.0200000),(0.0395498,-0.0242859,-0.0200000),(0.0384042,-0.0241138,-0.0200000),(0.0382818,-0.0241354,-0.0200000),(0.0395498,-0.0242859,-0.0200000),(0.0382818,-0.0241354,-0.0200000),(0.0381605,-0.0241657,-0.0200000),(0.0395498,-0.0242859,-0.0200000),(0.0381605,-0.0241657,-0.0200000),(0.0380402,-0.0242047,-0.0200000),(0.0395498,-0.0242859,-0.0200000),(0.0380402,-0.0242047,-0.0200000),(0.0379211,-0.0242524,-0.0200000),(0.0395498,-0.0242859,-0.0200000),(0.0379211,-0.0242524,-0.0200000),(0.0378030,-0.0243087,-0.0200000),(0.0395498,-0.0242859,-0.0200000),(0.0378030,-0.0243087,-0.0200000),(0.0376861,-0.0243737,-0.0200000),(0.0395498,-0.0242859,-0.0200000),(0.0376861,-0.0243737,-0.0200000),(0.0375730,-0.0244459,-0.0200000),(0.0395498,-0.0242859,-0.0200000),(0.0375730,-0.0244459,-0.0200000),(0.0374659,-0.0245243,-0.0200000),(0.0395498,-0.0242859,-0.0200000),(0.0374659,-0.0245243,-0.0200000),(0.0373650,-0.0246089,-0.0200000),(0.0395498,-0.0242859,-0.0200000),(0.0373650,-0.0246089,-0.0200000),(0.0372701,-0.0246997,-0.0200000),(0.0395498,-0.0242859,-0.0200000),(0.0372701,-0.0246997,-0.0200000),(0.0371814,-0.0247967,-0.0200000),(0.0371814,-0.0247967,-0.0200000),(0.0370987,-0.0249000,-0.0200000),(0.0370221,-0.0250094,-0.0200000),(0.0371814,-0.0247967,-0.0200000),(0.0370221,-0.0250094,-0.0200000),(0.0369516,-0.0251251,-0.0200000),(0.0371814,-0.0247967,-0.0200000),(0.0369516,-0.0251251,-0.0200000),(0.0368883,-0.0252449,-0.0200000),(0.0371814,-0.0247967,-0.0200000),(0.0368883,-0.0252449,-0.0200000),(0.0368335,-0.0253673,-0.0200000),(0.0371814,-0.0247967,-0.0200000),(0.0368335,-0.0253673,-0.0200000),(0.0367871,-0.0254922,-0.0200000),(0.0371814,-0.0247967,-0.0200000),(0.0367871,-0.0254922,-0.0200000),(0.0367492,-0.0256196,-0.0200000),(0.0371814,-0.0247967,-0.0200000),(0.0367492,-0.0256196,-0.0200000),(0.0367197,-0.0257496,-0.0200000),(0.0371814,-0.0247967,-0.0200000),(0.0367197,-0.0257496,-0.0200000),(0.0366986,-0.0258822,-0.0200000),(0.0371814,-0.0247967,-0.0200000),(0.0366986,-0.0258822,-0.0200000),(0.0366859,-0.0260173,-0.0200000),(0.0371814,-0.0247967,-0.0200000),(0.0366859,-0.0260173,-0.0200000),(0.0366817,-0.0261549,-0.0200000),(0.0371814,-0.0247967,-0.0200000),(0.0366817,-0.0261549,-0.0200000),(0.0366859,-0.0262929,-0.0200000),(0.0371814,-0.0247967,-0.0200000),(0.0366859,-0.0262929,-0.0200000),(0.0366985,-0.0264283,-0.0200000),(0.0371814,-0.0247967,-0.0200000),(0.0366985,-0.0264283,-0.0200000),(0.0367195,-0.0265608,-0.0200000),(0.0371814,-0.0247967,-0.0200000),(0.0367195,-0.0265608,-0.0200000),(0.0367489,-0.0266907,-0.0200000),(0.0371814,-0.0247967,-0.0200000),(0.0367489,-0.0266907,-0.0200000),(0.0367867,-0.0268177,-0.0200000),(0.0371814,-0.0247967,-0.0200000),(0.0367867,-0.0268177,-0.0200000),(0.0368329,-0.0269421,-0.0200000),(0.0371814,-0.0247967,-0.0200000),(0.0368329,-0.0269421,-0.0200000),(0.0368875,-0.0270637,-0.0200000),(0.0371814,-0.0247967,-0.0200000),(0.0368875,-0.0270637,-0.0200000),(0.0369505,-0.0271825,-0.0200000),(0.0369505,-0.0271825,-0.0200000),(0.0373188,-0.0269740,-0.0200000),(0.0372695,-0.0268793,-0.0200000),(0.0369505,-0.0271825,-0.0200000),(0.0372695,-0.0268793,-0.0200000),(0.0372267,-0.0267824,-0.0200000),(0.0369505,-0.0271825,-0.0200000),(0.0372267,-0.0267824,-0.0200000),(0.0371905,-0.0266834,-0.0200000),(0.0369505,-0.0271825,-0.0200000),(0.0371905,-0.0266834,-0.0200000),(0.0371609,-0.0265822,-0.0200000),(0.0369505,-0.0271825,-0.0200000),(0.0371609,-0.0265822,-0.0200000),(0.0371378,-0.0264789,-0.0200000),(0.0369505,-0.0271825,-0.0200000),(0.0371378,-0.0264789,-0.0200000),(0.0371214,-0.0263734,-0.0200000),(0.0369505,-0.0271825,-0.0200000),(0.0371214,-0.0263734,-0.0200000),(0.0371115,-0.0262657,-0.0200000),(0.0369505,-0.0271825,-0.0200000),(0.0371115,-0.0262657,-0.0200000),(0.0371082,-0.0261559,-0.0200000),(0.0369505,-0.0271825,-0.0200000),(0.0371082,-0.0261559,-0.0200000),(0.0371116,-0.0260461,-0.0200000),(0.0371814,-0.0247967,-0.0200000),(0.0369505,-0.0271825,-0.0200000),(0.0371116,-0.0260461,-0.0200000),(0.0371814,-0.0247967,-0.0200000),(0.0371116,-0.0260461,-0.0200000),(0.0371216,-0.0259384,-0.0200000),(0.0371814,-0.0247967,-0.0200000),(0.0371216,-0.0259384,-0.0200000),(0.0371383,-0.0258327,-0.0200000),(0.0371814,-0.0247967,-0.0200000),(0.0371383,-0.0258327,-0.0200000),(0.0371617,-0.0257292,-0.0200000),(0.0371814,-0.0247967,-0.0200000),(0.0371617,-0.0257292,-0.0200000),(0.0371917,-0.0256277,-0.0200000),(0.0371814,-0.0247967,-0.0200000),(0.0371917,-0.0256277,-0.0200000),(0.0372285,-0.0255283,-0.0200000),(0.0371814,-0.0247967,-0.0200000),(0.0372285,-0.0255283,-0.0200000),(0.0372719,-0.0254310,-0.0200000),(0.0371814,-0.0247967,-0.0200000),(0.0372719,-0.0254310,-0.0200000),(0.0373220,-0.0253357,-0.0200000),(0.0371814,-0.0247967,-0.0200000),(0.0373220,-0.0253357,-0.0200000),(0.0373778,-0.0252438,-0.0200000),(0.0371814,-0.0247967,-0.0200000),(0.0373778,-0.0252438,-0.0200000),(0.0374385,-0.0251569,-0.0200000),(0.0371814,-0.0247967,-0.0200000),(0.0374385,-0.0251569,-0.0200000),(0.0375039,-0.0250750,-0.0200000),(0.0371814,-0.0247967,-0.0200000),(0.0375039,-0.0250750,-0.0200000),(0.0375741,-0.0249981,-0.0200000),(0.0371814,-0.0247967,-0.0200000),(0.0375741,-0.0249981,-0.0200000),(0.0376492,-0.0249263,-0.0200000),(0.0371814,-0.0247967,-0.0200000),(0.0376492,-0.0249263,-0.0200000),(0.0377290,-0.0248595,-0.0200000),(0.0371814,-0.0247967,-0.0200000),(0.0377290,-0.0248595,-0.0200000),(0.0378136,-0.0247977,-0.0200000),(0.0371814,-0.0247967,-0.0200000),(0.0378136,-0.0247977,-0.0200000),(0.0379030,-0.0247410,-0.0200000),(0.0371814,-0.0247967,-0.0200000),(0.0379030,-0.0247410,-0.0200000),(0.0379951,-0.0246899,-0.0200000),(0.0371814,-0.0247967,-0.0200000),(0.0379951,-0.0246899,-0.0200000),(0.0380877,-0.0246456,-0.0200000),(0.0371814,-0.0247967,-0.0200000),(0.0380877,-0.0246456,-0.0200000),(0.0381808,-0.0246081,-0.0200000),(0.0371814,-0.0247967,-0.0200000),(0.0381808,-0.0246081,-0.0200000),(0.0382745,-0.0245774,-0.0200000),(0.0371814,-0.0247967,-0.0200000),(0.0382745,-0.0245774,-0.0200000),(0.0383687,-0.0245536,-0.0200000),(0.0395498,-0.0242859,-0.0200000),(0.0371814,-0.0247967,-0.0200000),(0.0383687,-0.0245536,-0.0200000),(0.0395498,-0.0242859,-0.0200000),(0.0383687,-0.0245536,-0.0200000),(0.0384634,-0.0245366,-0.0200000),(0.0395498,-0.0242859,-0.0200000),(0.0384634,-0.0245366,-0.0200000),(0.0385587,-0.0245263,-0.0200000),(0.0395498,-0.0242859,-0.0200000),(0.0385587,-0.0245263,-0.0200000),(0.0386544,-0.0245229,-0.0200000),(0.0395498,-0.0242859,-0.0200000),(0.0386544,-0.0245229,-0.0200000),(0.0386608,-0.0245229,-0.0200000),(0.0395498,-0.0242859,-0.0200000),(0.0386608,-0.0245229,-0.0200000),(0.0387545,-0.0245250,-0.0200000),(0.0395498,-0.0242859,-0.0200000),(0.0387545,-0.0245250,-0.0200000),(0.0388457,-0.0245313,-0.0200000),(0.0395498,-0.0242859,-0.0200000),(0.0388457,-0.0245313,-0.0200000),(0.0389343,-0.0245417,-0.0200000),(0.0395498,-0.0242859,-0.0200000),(0.0389343,-0.0245417,-0.0200000),(0.0390204,-0.0245563,-0.0200000),(0.0395498,-0.0242859,-0.0200000),(0.0390204,-0.0245563,-0.0200000),(0.0391039,-0.0245750,-0.0200000),(0.0395498,-0.0242859,-0.0200000),(0.0391039,-0.0245750,-0.0200000),(0.0391849,-0.0245979,-0.0200000),(0.0395498,-0.0242859,-0.0200000),(0.0391849,-0.0245979,-0.0200000),(0.0392633,-0.0246250,-0.0200000),(0.0395498,-0.0242859,-0.0200000),(0.0392633,-0.0246250,-0.0200000),(0.0393392,-0.0246563,-0.0200000),(0.0373368,-0.0290113,-0.0200000),(0.0395498,-0.0242859,-0.0200000),(0.0393392,-0.0246563,-0.0200000),(0.0373368,-0.0290113,-0.0200000),(0.0393392,-0.0246563,-0.0200000),(0.0377347,-0.0274513,-0.0200000),(0.0373368,-0.0290113,-0.0200000),(0.0377347,-0.0274513,-0.0200000),(0.0376143,-0.0273485,-0.0200000),(0.0373612,-0.0270433,-0.0200000),(0.0373188,-0.0269740,-0.0200000),(0.0369505,-0.0271825,-0.0200000),(0.0374063,-0.0271098,-0.0200000),(0.0373612,-0.0270433,-0.0200000),(0.0369505,-0.0271825,-0.0200000),(0.0375048,-0.0272347,-0.0200000),(0.0374063,-0.0271098,-0.0200000),(0.0369505,-0.0271825,-0.0200000),(0.0376143,-0.0273485,-0.0200000),(0.0375048,-0.0272347,-0.0200000),(0.0369505,-0.0271825,-0.0200000),(0.0376143,-0.0273485,-0.0200000),(0.0369505,-0.0271825,-0.0200000),(0.0370085,-0.0272776,-0.0200000),(0.0376143,-0.0273485,-0.0200000),(0.0370085,-0.0272776,-0.0200000),(0.0370701,-0.0273685,-0.0200000),(0.0376143,-0.0273485,-0.0200000),(0.0370701,-0.0273685,-0.0200000),(0.0371355,-0.0274554,-0.0200000),(0.0376143,-0.0273485,-0.0200000),(0.0371355,-0.0274554,-0.0200000),(0.0372045,-0.0275381,-0.0200000),(0.0376143,-0.0273485,-0.0200000),(0.0372045,-0.0275381,-0.0200000),(0.0372773,-0.0276168,-0.0200000),(0.0376143,-0.0273485,-0.0200000),(0.0372773,-0.0276168,-0.0200000),(0.0373537,-0.0276913,-0.0200000),(0.0376143,-0.0273485,-0.0200000),(0.0373537,-0.0276913,-0.0200000),(0.0374339,-0.0277618,-0.0200000),(0.0376143,-0.0273485,-0.0200000),(0.0374339,-0.0277618,-0.0200000),(0.0375178,-0.0278281,-0.0200000),(0.0373368,-0.0290113,-0.0200000),(0.0376143,-0.0273485,-0.0200000),(0.0375178,-0.0278281,-0.0200000),(0.0373368,-0.0290113,-0.0200000),(0.0375178,-0.0278281,-0.0200000),(0.0369622,-0.0287986,-0.0200000),(0.0373368,-0.0290113,-0.0200000),(0.0369622,-0.0287986,-0.0200000),(0.0369346,-0.0289002,-0.0200000),(0.0373368,-0.0290113,-0.0200000),(0.0369346,-0.0289002,-0.0200000),(0.0369410,-0.0289605,-0.0200000),(0.0373368,-0.0290113,-0.0200000),(0.0369410,-0.0289605,-0.0200000),(0.0369802,-0.0290375,-0.0200000),(0.0373368,-0.0290113,-0.0200000),(0.0369802,-0.0290375,-0.0200000),(0.0370426,-0.0290928,-0.0200000),(0.0373368,-0.0290113,-0.0200000),(0.0370426,-0.0290928,-0.0200000),(0.0371474,-0.0291203,-0.0200000),(0.0373368,-0.0290113,-0.0200000),(0.0371474,-0.0291203,-0.0200000),(0.0372077,-0.0291129,-0.0200000),(0.0373368,-0.0290113,-0.0200000),(0.0372077,-0.0291129,-0.0200000),(0.0372802,-0.0290775,-0.0200000),(0.0464787,-0.0264883,-0.0200000),(0.0460734,-0.0264883,-0.0200000),(0.0453833,-0.0265020,-0.0200000),(0.0467211,-0.0264883,-0.0200000),(0.0464787,-0.0264883,-0.0200000),(0.0453833,-0.0265020,-0.0200000),(0.0460734,-0.0251526,-0.0200000),(0.0460734,-0.0264883,-0.0200000),(0.0464787,-0.0264883,-0.0200000),(0.0460734,-0.0251526,-0.0200000),(0.0464787,-0.0264883,-0.0200000),(0.0464787,-0.0243007,-0.0200000),(0.0453833,-0.0265020,-0.0200000),(0.0460734,-0.0251526,-0.0200000),(0.0464787,-0.0243007,-0.0200000),(0.0453833,-0.0265020,-0.0200000),(0.0464787,-0.0243007,-0.0200000),(0.0464689,-0.0242258,-0.0200000),(0.0453833,-0.0265020,-0.0200000),(0.0464689,-0.0242258,-0.0200000),(0.0464395,-0.0241684,-0.0200000),(0.0453833,-0.0265020,-0.0200000),(0.0464395,-0.0241684,-0.0200000),(0.0463305,-0.0240943,-0.0200000),(0.0453833,-0.0265020,-0.0200000),(0.0463305,-0.0240943,-0.0200000),(0.0462702,-0.0240869,-0.0200000),(0.0453833,-0.0265020,-0.0200000),(0.0462702,-0.0240869,-0.0200000),(0.0461940,-0.0240964,-0.0200000),(0.0453833,-0.0265020,-0.0200000),(0.0461940,-0.0240964,-0.0200000),(0.0460871,-0.0241800,-0.0200000),(0.0453833,-0.0265020,-0.0200000),(0.0460871,-0.0241800,-0.0200000),(0.0448097,-0.0265994,-0.0200000),(0.0467211,-0.0264883,-0.0200000),(0.0453833,-0.0265020,-0.0200000),(0.0448097,-0.0265994,-0.0200000),(0.0467211,-0.0264883,-0.0200000),(0.0448097,-0.0265994,-0.0200000),(0.0447748,-0.0267264,-0.0200000),(0.0467211,-0.0264883,-0.0200000),(0.0447748,-0.0267264,-0.0200000),(0.0448002,-0.0268142,-0.0200000),(0.0467211,-0.0264883,-0.0200000),(0.0448002,-0.0268142,-0.0200000),(0.0448772,-0.0268888,-0.0200000),(0.0467211,-0.0264883,-0.0200000),(0.0448772,-0.0268888,-0.0200000),(0.0449875,-0.0269137,-0.0200000),(0.0467211,-0.0264883,-0.0200000),(0.0449875,-0.0269137,-0.0200000),(0.0460522,-0.0269137,-0.0200000),(0.0460522,-0.0269137,-0.0200000),(0.0460522,-0.0279255,-0.0200000),(0.0460678,-0.0280088,-0.0200000),(0.0460522,-0.0269137,-0.0200000),(0.0460678,-0.0280088,-0.0200000),(0.0461146,-0.0280768,-0.0200000),(0.0460522,-0.0269137,-0.0200000),(0.0461146,-0.0280768,-0.0200000),(0.0461834,-0.0281229,-0.0200000),(0.0460522,-0.0269137,-0.0200000),(0.0461834,-0.0281229,-0.0200000),(0.0462649,-0.0281382,-0.0200000),(0.0460522,-0.0269137,-0.0200000),(0.0462649,-0.0281382,-0.0200000),(0.0463472,-0.0281229,-0.0200000),(0.0460522,-0.0269137,-0.0200000),(0.0463472,-0.0281229,-0.0200000),(0.0464163,-0.0280768,-0.0200000),(0.0460522,-0.0269137,-0.0200000),(0.0464163,-0.0280768,-0.0200000),(0.0464631,-0.0280088,-0.0200000),(0.0460522,-0.0269137,-0.0200000),(0.0464631,-0.0280088,-0.0200000),(0.0464787,-0.0279255,-0.0200000),(0.0460522,-0.0269137,-0.0200000),(0.0464787,-0.0279255,-0.0200000),(0.0464787,-0.0269137,-0.0200000),(0.0467211,-0.0264883,-0.0200000),(0.0460522,-0.0269137,-0.0200000),(0.0464787,-0.0269137,-0.0200000),(0.0467211,-0.0264883,-0.0200000),(0.0464787,-0.0269137,-0.0200000),(0.0467211,-0.0269137,-0.0200000),(0.0467211,-0.0264883,-0.0200000),(0.0467211,-0.0269137,-0.0200000),(0.0468047,-0.0268981,-0.0200000),(0.0467211,-0.0264883,-0.0200000),(0.0468047,-0.0268981,-0.0200000),(0.0468735,-0.0268513,-0.0200000),(0.0467211,-0.0264883,-0.0200000),(0.0468735,-0.0268513,-0.0200000),(0.0469195,-0.0267825,-0.0200000),(0.0467211,-0.0264883,-0.0200000),(0.0469195,-0.0267825,-0.0200000),(0.0469348,-0.0267010,-0.0200000),(0.0467211,-0.0264883,-0.0200000),(0.0469348,-0.0267010,-0.0200000),(0.0469195,-0.0266195,-0.0200000),(0.0467211,-0.0264883,-0.0200000),(0.0469195,-0.0266195,-0.0200000),(0.0468735,-0.0265507,-0.0200000),(0.0467211,-0.0264883,-0.0200000),(0.0468735,-0.0265507,-0.0200000),(0.0468047,-0.0265039,-0.0200000),(0.0418580,-0.0277286,-0.0200000),(0.0430296,-0.0261380,-0.0200000),(0.0430941,-0.0260442,-0.0200000),(0.0418580,-0.0277286,-0.0200000),(0.0430941,-0.0260442,-0.0200000),(0.0431500,-0.0259466,-0.0200000),(0.0418580,-0.0277286,-0.0200000),(0.0431500,-0.0259466,-0.0200000),(0.0431973,-0.0258451,-0.0200000),(0.0418580,-0.0277286,-0.0200000),(0.0431973,-0.0258451,-0.0200000),(0.0432360,-0.0257398,-0.0200000),(0.0418580,-0.0277286,-0.0200000),(0.0432360,-0.0257398,-0.0200000),(0.0432661,-0.0256305,-0.0200000),(0.0418580,-0.0277286,-0.0200000),(0.0432661,-0.0256305,-0.0200000),(0.0432876,-0.0255174,-0.0200000),(0.0418580,-0.0277286,-0.0200000),(0.0432876,-0.0255174,-0.0200000),(0.0433005,-0.0254005,-0.0200000),(0.0418580,-0.0277286,-0.0200000),(0.0433005,-0.0254005,-0.0200000),(0.0433048,-0.0252796,-0.0200000),(0.0418580,-0.0277286,-0.0200000),(0.0433048,-0.0252796,-0.0200000),(0.0432996,-0.0251547,-0.0200000),(0.0418580,-0.0277286,-0.0200000),(0.0432996,-0.0251547,-0.0200000),(0.0432842,-0.0250343,-0.0200000),(0.0418580,-0.0277286,-0.0200000),(0.0432842,-0.0250343,-0.0200000),(0.0432586,-0.0249185,-0.0200000),(0.0418580,-0.0277286,-0.0200000),(0.0432586,-0.0249185,-0.0200000),(0.0432227,-0.0248074,-0.0200000),(0.0432227,-0.0248074,-0.0200000),(0.0431766,-0.0247008,-0.0200000),(0.0431202,-0.0245988,-0.0200000),(0.0432227,-0.0248074,-0.0200000),(0.0431202,-0.0245988,-0.0200000),(0.0430536,-0.0245014,-0.0200000),(0.0432227,-0.0248074,-0.0200000),(0.0430536,-0.0245014,-0.0200000),(0.0429767,-0.0244086,-0.0200000),(0.0432227,-0.0248074,-0.0200000),(0.0429767,-0.0244086,-0.0200000),(0.0429038,-0.0243355,-0.0200000),(0.0432227,-0.0248074,-0.0200000),(0.0429038,-0.0243355,-0.0200000),(0.0428264,-0.0242720,-0.0200000),(0.0432227,-0.0248074,-0.0200000),(0.0428264,-0.0242720,-0.0200000),(0.0427445,-0.0242184,-0.0200000),(0.0432227,-0.0248074,-0.0200000),(0.0427445,-0.0242184,-0.0200000),(0.0426581,-0.0241745,-0.0200000),(0.0432227,-0.0248074,-0.0200000),(0.0426581,-0.0241745,-0.0200000),(0.0425672,-0.0241403,-0.0200000),(0.0432227,-0.0248074,-0.0200000),(0.0425672,-0.0241403,-0.0200000),(0.0424718,-0.0241159,-0.0200000),(0.0432227,-0.0248074,-0.0200000),(0.0424718,-0.0241159,-0.0200000),(0.0423720,-0.0241013,-0.0200000),(0.0432227,-0.0248074,-0.0200000),(0.0423720,-0.0241013,-0.0200000),(0.0422676,-0.0240964,-0.0200000),(0.0432227,-0.0248074,-0.0200000),(0.0422676,-0.0240964,-0.0200000),(0.0421691,-0.0241012,-0.0200000),(0.0432227,-0.0248074,-0.0200000),(0.0421691,-0.0241012,-0.0200000),(0.0420736,-0.0241155,-0.0200000),(0.0432227,-0.0248074,-0.0200000),(0.0420736,-0.0241155,-0.0200000),(0.0419811,-0.0241394,-0.0200000),(0.0432227,-0.0248074,-0.0200000),(0.0419811,-0.0241394,-0.0200000),(0.0418916,-0.0241729,-0.0200000),(0.0432227,-0.0248074,-0.0200000),(0.0418916,-0.0241729,-0.0200000),(0.0418051,-0.0242159,-0.0200000),(0.0432227,-0.0248074,-0.0200000),(0.0418051,-0.0242159,-0.0200000),(0.0417217,-0.0242685,-0.0200000),(0.0417217,-0.0242685,-0.0200000),(0.0416412,-0.0243306,-0.0200000),(0.0415638,-0.0244023,-0.0200000),(0.0417217,-0.0242685,-0.0200000),(0.0415638,-0.0244023,-0.0200000),(0.0414847,-0.0244888,-0.0200000),(0.0417217,-0.0242685,-0.0200000),(0.0414847,-0.0244888,-0.0200000),(0.0414161,-0.0245817,-0.0200000),(0.0417217,-0.0242685,-0.0200000),(0.0414161,-0.0245817,-0.0200000),(0.0413581,-0.0246809,-0.0200000),(0.0417217,-0.0242685,-0.0200000),(0.0413581,-0.0246809,-0.0200000),(0.0413106,-0.0247865,-0.0200000),(0.0417217,-0.0242685,-0.0200000),(0.0413106,-0.0247865,-0.0200000),(0.0412737,-0.0248984,-0.0200000),(0.0417217,-0.0242685,-0.0200000),(0.0412737,-0.0248984,-0.0200000),(0.0412473,-0.0250166,-0.0200000),(0.0417217,-0.0242685,-0.0200000),(0.0412473,-0.0250166,-0.0200000),(0.0412315,-0.0251413,-0.0200000),(0.0417217,-0.0242685,-0.0200000),(0.0412315,-0.0251413,-0.0200000),(0.0412262,-0.0252722,-0.0200000),(0.0417217,-0.0242685,-0.0200000),(0.0412262,-0.0252722,-0.0200000),(0.0412262,-0.0252775,-0.0200000),(0.0417217,-0.0242685,-0.0200000),(0.0412262,-0.0252775,-0.0200000),(0.0412418,-0.0253590,-0.0200000),(0.0417217,-0.0242685,-0.0200000),(0.0412418,-0.0253590,-0.0200000),(0.0412886,-0.0254278,-0.0200000),(0.0417217,-0.0242685,-0.0200000),(0.0412886,-0.0254278,-0.0200000),(0.0413574,-0.0254746,-0.0200000),(0.0417217,-0.0242685,-0.0200000),(0.0413574,-0.0254746,-0.0200000),(0.0414389,-0.0254903,-0.0200000),(0.0417217,-0.0242685,-0.0200000),(0.0414389,-0.0254903,-0.0200000),(0.0415204,-0.0254746,-0.0200000),(0.0417217,-0.0242685,-0.0200000),(0.0415204,-0.0254746,-0.0200000),(0.0415892,-0.0254278,-0.0200000),(0.0417217,-0.0242685,-0.0200000),(0.0415892,-0.0254278,-0.0200000),(0.0416368,-0.0253590,-0.0200000),(0.0416368,-0.0253590,-0.0200000),(0.0416527,-0.0252775,-0.0200000),(0.0416527,-0.0252722,-0.0200000),(0.0416368,-0.0253590,-0.0200000),(0.0416527,-0.0252722,-0.0200000),(0.0416560,-0.0251853,-0.0200000),(0.0417217,-0.0242685,-0.0200000),(0.0416368,-0.0253590,-0.0200000),(0.0416560,-0.0251853,-0.0200000),(0.0417217,-0.0242685,-0.0200000),(0.0416560,-0.0251853,-0.0200000),(0.0416660,-0.0251029,-0.0200000),(0.0417217,-0.0242685,-0.0200000),(0.0416660,-0.0251029,-0.0200000),(0.0416826,-0.0250250,-0.0200000),(0.0417217,-0.0242685,-0.0200000),(0.0416826,-0.0250250,-0.0200000),(0.0417059,-0.0249516,-0.0200000),(0.0417217,-0.0242685,-0.0200000),(0.0417059,-0.0249516,-0.0200000),(0.0417724,-0.0248182,-0.0200000),(0.0417217,-0.0242685,-0.0200000),(0.0417724,-0.0248182,-0.0200000),(0.0418654,-0.0247029,-0.0200000),(0.0417217,-0.0242685,-0.0200000),(0.0418654,-0.0247029,-0.0200000),(0.0419563,-0.0246241,-0.0200000),(0.0417217,-0.0242685,-0.0200000),(0.0419563,-0.0246241,-0.0200000),(0.0420533,-0.0245679,-0.0200000),(0.0417217,-0.0242685,-0.0200000),(0.0420533,-0.0245679,-0.0200000),(0.0421563,-0.0245342,-0.0200000),(0.0417217,-0.0242685,-0.0200000),(0.0421563,-0.0245342,-0.0200000),(0.0422655,-0.0245229,-0.0200000),(0.0417217,-0.0242685,-0.0200000),(0.0422655,-0.0245229,-0.0200000),(0.0423787,-0.0245338,-0.0200000),(0.0417217,-0.0242685,-0.0200000),(0.0423787,-0.0245338,-0.0200000),(0.0424824,-0.0245663,-0.0200000),(0.0432227,-0.0248074,-0.0200000),(0.0417217,-0.0242685,-0.0200000),(0.0424824,-0.0245663,-0.0200000),(0.0432227,-0.0248074,-0.0200000),(0.0424824,-0.0245663,-0.0200000),(0.0425766,-0.0246206,-0.0200000),(0.0432227,-0.0248074,-0.0200000),(0.0425766,-0.0246206,-0.0200000),(0.0426613,-0.0246965,-0.0200000),(0.0432227,-0.0248074,-0.0200000),(0.0426613,-0.0246965,-0.0200000),(0.0427129,-0.0247577,-0.0200000),(0.0432227,-0.0248074,-0.0200000),(0.0427129,-0.0247577,-0.0200000),(0.0427576,-0.0248221,-0.0200000),(0.0432227,-0.0248074,-0.0200000),(0.0427576,-0.0248221,-0.0200000),(0.0428264,-0.0249608,-0.0200000),(0.0432227,-0.0248074,-0.0200000),(0.0428264,-0.0249608,-0.0200000),(0.0428677,-0.0251126,-0.0200000),(0.0432227,-0.0248074,-0.0200000),(0.0428677,-0.0251126,-0.0200000),(0.0428780,-0.0251934,-0.0200000),(0.0432227,-0.0248074,-0.0200000),(0.0428780,-0.0251934,-0.0200000),(0.0428814,-0.0252775,-0.0200000),(0.0432227,-0.0248074,-0.0200000),(0.0428814,-0.0252775,-0.0200000),(0.0428785,-0.0253642,-0.0200000),(0.0432227,-0.0248074,-0.0200000),(0.0428785,-0.0253642,-0.0200000),(0.0428697,-0.0254477,-0.0200000),(0.0432227,-0.0248074,-0.0200000),(0.0428697,-0.0254477,-0.0200000),(0.0428551,-0.0255278,-0.0200000),(0.0432227,-0.0248074,-0.0200000),(0.0428551,-0.0255278,-0.0200000),(0.0428346,-0.0256046,-0.0200000),(0.0432227,-0.0248074,-0.0200000),(0.0428346,-0.0256046,-0.0200000),(0.0427760,-0.0257482,-0.0200000),(0.0418580,-0.0277286,-0.0200000),(0.0432227,-0.0248074,-0.0200000),(0.0427760,-0.0257482,-0.0200000),(0.0418580,-0.0277286,-0.0200000),(0.0427760,-0.0257482,-0.0200000),(0.0426941,-0.0258787,-0.0200000),(0.0418580,-0.0277286,-0.0200000),(0.0426941,-0.0258787,-0.0200000),(0.0412706,-0.0278122,-0.0200000),(0.0430941,-0.0277286,-0.0200000),(0.0418580,-0.0277286,-0.0200000),(0.0412706,-0.0278122,-0.0200000),(0.0430941,-0.0277286,-0.0200000),(0.0412706,-0.0278122,-0.0200000),(0.0412241,-0.0279371,-0.0200000),(0.0430941,-0.0277286,-0.0200000),(0.0412241,-0.0279371,-0.0200000),(0.0412262,-0.0279720,-0.0200000),(0.0430941,-0.0277286,-0.0200000),(0.0412262,-0.0279720,-0.0200000),(0.0412526,-0.0280506,-0.0200000),(0.0430941,-0.0277286,-0.0200000),(0.0412526,-0.0280506,-0.0200000),(0.0413045,-0.0281065,-0.0200000),(0.0430941,-0.0277286,-0.0200000),(0.0413045,-0.0281065,-0.0200000),(0.0413730,-0.0281414,-0.0200000),(0.0430941,-0.0277286,-0.0200000),(0.0413730,-0.0281414,-0.0200000),(0.0414389,-0.0281530,-0.0200000),(0.0430941,-0.0277286,-0.0200000),(0.0414389,-0.0281530,-0.0200000),(0.0430941,-0.0281530,-0.0200000),(0.0430941,-0.0277286,-0.0200000),(0.0430941,-0.0281530,-0.0200000),(0.0431775,-0.0281379,-0.0200000),(0.0430941,-0.0277286,-0.0200000),(0.0431775,-0.0281379,-0.0200000),(0.0432455,-0.0280927,-0.0200000),(0.0430941,-0.0277286,-0.0200000),(0.0432455,-0.0280927,-0.0200000),(0.0432899,-0.0280247,-0.0200000),(0.0430941,-0.0277286,-0.0200000),(0.0432899,-0.0280247,-0.0200000),(0.0433048,-0.0279414,-0.0200000),(0.0430941,-0.0277286,-0.0200000),(0.0433048,-0.0279414,-0.0200000),(0.0432899,-0.0278572,-0.0200000),(0.0430941,-0.0277286,-0.0200000),(0.0432899,-0.0278572,-0.0200000),(0.0432455,-0.0277890,-0.0200000),(0.0430941,-0.0277286,-0.0200000),(0.0432455,-0.0277890,-0.0200000),(0.0431796,-0.0277437,-0.0200000),(0.0437630,-0.0281226,-0.0200000),(0.0438360,-0.0282292,-0.0200000),(0.0439427,-0.0283022,-0.0200000),(0.0437630,-0.0281226,-0.0200000),(0.0439427,-0.0283022,-0.0200000),(0.0440678,-0.0283266,-0.0200000),(0.0437630,-0.0281226,-0.0200000),(0.0440678,-0.0283266,-0.0200000),(0.0441927,-0.0283022,-0.0200000),(0.0437630,-0.0281226,-0.0200000),(0.0441927,-0.0283022,-0.0200000),(0.0442985,-0.0282292,-0.0200000),(0.0437630,-0.0281226,-0.0200000),(0.0442985,-0.0282292,-0.0200000),(0.0443716,-0.0281226,-0.0200000),(0.0437630,-0.0281226,-0.0200000),(0.0443716,-0.0281226,-0.0200000),(0.0443959,-0.0279974,-0.0200000),(0.0437630,-0.0281226,-0.0200000),(0.0443959,-0.0279974,-0.0200000),(0.0443716,-0.0278723,-0.0200000),(0.0437630,-0.0281226,-0.0200000),(0.0443716,-0.0278723,-0.0200000),(0.0442985,-0.0277657,-0.0200000),(0.0437630,-0.0281226,-0.0200000),(0.0442985,-0.0277657,-0.0200000),(0.0441927,-0.0276926,-0.0200000),(0.0437630,-0.0281226,-0.0200000),(0.0441927,-0.0276926,-0.0200000),(0.0440678,-0.0276683,-0.0200000),(0.0437630,-0.0281226,-0.0200000),(0.0440678,-0.0276683,-0.0200000),(0.0439427,-0.0276926,-0.0200000),(0.0437630,-0.0281226,-0.0200000),(0.0439427,-0.0276926,-0.0200000),(0.0438360,-0.0277657,-0.0200000),(0.0437630,-0.0281226,-0.0200000),(0.0438360,-0.0277657,-0.0200000),(0.0437630,-0.0278723,-0.0200000),(0.0437630,-0.0281226,-0.0200000),(0.0437630,-0.0278723,-0.0200000),(0.0437387,-0.0279974,-0.0200000),(0.0573226,-0.0263703,-0.0200000),(0.0587047,-0.0281599,-0.0200000),(0.0587770,-0.0282218,-0.0200000),(0.0573226,-0.0263703,-0.0200000),(0.0587770,-0.0282218,-0.0200000),(0.0588688,-0.0282424,-0.0200000),(0.0573226,-0.0263703,-0.0200000),(0.0588688,-0.0282424,-0.0200000),(0.0590011,-0.0281969,-0.0200000),(0.0573226,-0.0263703,-0.0200000),(0.0590011,-0.0281969,-0.0200000),(0.0590654,-0.0281234,-0.0200000),(0.0573226,-0.0263703,-0.0200000),(0.0590654,-0.0281234,-0.0200000),(0.0590868,-0.0280276,-0.0200000),(0.0573226,-0.0263703,-0.0200000),(0.0590868,-0.0280276,-0.0200000),(0.0590424,-0.0278953,-0.0200000),(0.0573226,-0.0263703,-0.0200000),(0.0590424,-0.0278953,-0.0200000),(0.0578665,-0.0263703,-0.0200000),(0.0578665,-0.0263703,-0.0200000),(0.0579523,-0.0263703,-0.0200000),(0.0580715,-0.0263651,-0.0200000),(0.0573226,-0.0263703,-0.0200000),(0.0578665,-0.0263703,-0.0200000),(0.0580715,-0.0263651,-0.0200000),(0.0564590,-0.0263703,-0.0200000),(0.0573226,-0.0263703,-0.0200000),(0.0580715,-0.0263651,-0.0200000),(0.0564590,-0.0263703,-0.0200000),(0.0580715,-0.0263651,-0.0200000),(0.0581853,-0.0263498,-0.0200000),(0.0564590,-0.0263703,-0.0200000),(0.0581853,-0.0263498,-0.0200000),(0.0582936,-0.0263243,-0.0200000),(0.0564590,-0.0263703,-0.0200000),(0.0582936,-0.0263243,-0.0200000),(0.0583965,-0.0262885,-0.0200000),(0.0564590,-0.0263703,-0.0200000),(0.0583965,-0.0262885,-0.0200000),(0.0584939,-0.0262425,-0.0200000),(0.0564590,-0.0263703,-0.0200000),(0.0584939,-0.0262425,-0.0200000),(0.0585859,-0.0261863,-0.0200000),(0.0564590,-0.0263703,-0.0200000),(0.0585859,-0.0261863,-0.0200000),(0.0586724,-0.0261199,-0.0200000),(0.0564590,-0.0263703,-0.0200000),(0.0586724,-0.0261199,-0.0200000),(0.0587534,-0.0260432,-0.0200000),(0.0564590,-0.0263703,-0.0200000),(0.0587534,-0.0260432,-0.0200000),(0.0588298,-0.0259535,-0.0200000),(0.0564590,-0.0263703,-0.0200000),(0.0588298,-0.0259535,-0.0200000),(0.0588960,-0.0258611,-0.0200000),(0.0564590,-0.0263703,-0.0200000),(0.0588960,-0.0258611,-0.0200000),(0.0589521,-0.0257659,-0.0200000),(0.0589521,-0.0257659,-0.0200000),(0.0589979,-0.0256681,-0.0200000),(0.0586023,-0.0255188,-0.0200000),(0.0589521,-0.0257659,-0.0200000),(0.0586023,-0.0255188,-0.0200000),(0.0585379,-0.0256364,-0.0200000),(0.0589521,-0.0257659,-0.0200000),(0.0585379,-0.0256364,-0.0200000),(0.0584476,-0.0257427,-0.0200000),(0.0589521,-0.0257659,-0.0200000),(0.0584476,-0.0257427,-0.0200000),(0.0583376,-0.0258306,-0.0200000),(0.0589521,-0.0257659,-0.0200000),(0.0583376,-0.0258306,-0.0200000),(0.0582184,-0.0258935,-0.0200000),(0.0589521,-0.0257659,-0.0200000),(0.0582184,-0.0258935,-0.0200000),(0.0580900,-0.0259312,-0.0200000),(0.0564590,-0.0263703,-0.0200000),(0.0589521,-0.0257659,-0.0200000),(0.0580900,-0.0259312,-0.0200000),(0.0564590,-0.0263703,-0.0200000),(0.0580900,-0.0259312,-0.0200000),(0.0579523,-0.0259437,-0.0200000),(0.0564590,-0.0263703,-0.0200000),(0.0579523,-0.0259437,-0.0200000),(0.0564590,-0.0259437,-0.0200000),(0.0586410,-0.0253898,-0.0200000),(0.0586023,-0.0255188,-0.0200000),(0.0589979,-0.0256681,-0.0200000),(0.0586539,-0.0252495,-0.0200000),(0.0586410,-0.0253898,-0.0200000),(0.0589979,-0.0256681,-0.0200000),(0.0586410,-0.0251104,-0.0200000),(0.0586539,-0.0252495,-0.0200000),(0.0589979,-0.0256681,-0.0200000),(0.0586023,-0.0249823,-0.0200000),(0.0586410,-0.0251104,-0.0200000),(0.0589979,-0.0256681,-0.0200000),(0.0585379,-0.0248649,-0.0200000),(0.0586023,-0.0249823,-0.0200000),(0.0589979,-0.0256681,-0.0200000),(0.0585379,-0.0248649,-0.0200000),(0.0589979,-0.0256681,-0.0200000),(0.0590336,-0.0255675,-0.0200000),(0.0585379,-0.0248649,-0.0200000),(0.0590336,-0.0255675,-0.0200000),(0.0590590,-0.0254642,-0.0200000),(0.0584476,-0.0247584,-0.0200000),(0.0585379,-0.0248649,-0.0200000),(0.0590590,-0.0254642,-0.0200000),(0.0584476,-0.0247584,-0.0200000),(0.0590590,-0.0254642,-0.0200000),(0.0590743,-0.0253582,-0.0200000),(0.0584476,-0.0247584,-0.0200000),(0.0590743,-0.0253582,-0.0200000),(0.0590794,-0.0252495,-0.0200000),(0.0583404,-0.0246704,-0.0200000),(0.0584476,-0.0247584,-0.0200000),(0.0590794,-0.0252495,-0.0200000),(0.0583404,-0.0246704,-0.0200000),(0.0590794,-0.0252495,-0.0200000),(0.0590743,-0.0251369,-0.0200000),(0.0583404,-0.0246704,-0.0200000),(0.0590743,-0.0251369,-0.0200000),(0.0590590,-0.0250282,-0.0200000),(0.0582232,-0.0246076,-0.0200000),(0.0583404,-0.0246704,-0.0200000),(0.0590590,-0.0250282,-0.0200000),(0.0582232,-0.0246076,-0.0200000),(0.0590590,-0.0250282,-0.0200000),(0.0590336,-0.0249233,-0.0200000),(0.0582232,-0.0246076,-0.0200000),(0.0590336,-0.0249233,-0.0200000),(0.0589979,-0.0248224,-0.0200000),(0.0580959,-0.0245699,-0.0200000),(0.0582232,-0.0246076,-0.0200000),(0.0589979,-0.0248224,-0.0200000),(0.0580959,-0.0245699,-0.0200000),(0.0589979,-0.0248224,-0.0200000),(0.0589521,-0.0247254,-0.0200000),(0.0580959,-0.0245699,-0.0200000),(0.0589521,-0.0247254,-0.0200000),(0.0588960,-0.0246323,-0.0200000),(0.0579586,-0.0245573,-0.0200000),(0.0580959,-0.0245699,-0.0200000),(0.0588960,-0.0246323,-0.0200000),(0.0579586,-0.0245573,-0.0200000),(0.0588960,-0.0246323,-0.0200000),(0.0588298,-0.0245431,-0.0200000),(0.0564590,-0.0245573,-0.0200000),(0.0579586,-0.0245573,-0.0200000),(0.0588298,-0.0245431,-0.0200000),(0.0564590,-0.0245573,-0.0200000),(0.0588298,-0.0245431,-0.0200000),(0.0587534,-0.0244578,-0.0200000),(0.0564590,-0.0245573,-0.0200000),(0.0587534,-0.0244578,-0.0200000),(0.0586664,-0.0243797,-0.0200000),(0.0564590,-0.0245573,-0.0200000),(0.0586664,-0.0243797,-0.0200000),(0.0585756,-0.0243120,-0.0200000),(0.0564590,-0.0245573,-0.0200000),(0.0585756,-0.0243120,-0.0200000),(0.0584810,-0.0242547,-0.0200000),(0.0564590,-0.0245573,-0.0200000),(0.0584810,-0.0242547,-0.0200000),(0.0583827,-0.0242078,-0.0200000),(0.0564590,-0.0245573,-0.0200000),(0.0583827,-0.0242078,-0.0200000),(0.0582807,-0.0241714,-0.0200000),(0.0564590,-0.0245573,-0.0200000),(0.0582807,-0.0241714,-0.0200000),(0.0581750,-0.0241453,-0.0200000),(0.0564590,-0.0245573,-0.0200000),(0.0581750,-0.0241453,-0.0200000),(0.0580655,-0.0241297,-0.0200000),(0.0564590,-0.0245573,-0.0200000),(0.0580655,-0.0241297,-0.0200000),(0.0579523,-0.0241245,-0.0200000),(0.0564590,-0.0245573,-0.0200000),(0.0579523,-0.0241245,-0.0200000),(0.0562462,-0.0241245,-0.0200000),(0.0564590,-0.0259437,-0.0200000),(0.0564590,-0.0245573,-0.0200000),(0.0562462,-0.0241245,-0.0200000),(0.0564590,-0.0263703,-0.0200000),(0.0564590,-0.0259437,-0.0200000),(0.0562462,-0.0241245,-0.0200000),(0.0564590,-0.0263703,-0.0200000),(0.0562462,-0.0241245,-0.0200000),(0.0561602,-0.0241411,-0.0200000),(0.0564590,-0.0263703,-0.0200000),(0.0561602,-0.0241411,-0.0200000),(0.0560885,-0.0241911,-0.0200000),(0.0564590,-0.0263703,-0.0200000),(0.0560885,-0.0241911,-0.0200000),(0.0560465,-0.0242655,-0.0200000),(0.0564590,-0.0263703,-0.0200000),(0.0560465,-0.0242655,-0.0200000),(0.0560325,-0.0243446,-0.0200000),(0.0564590,-0.0263703,-0.0200000),(0.0560325,-0.0243446,-0.0200000),(0.0560325,-0.0279715,-0.0200000),(0.0564590,-0.0263703,-0.0200000),(0.0560325,-0.0279715,-0.0200000),(0.0560553,-0.0280549,-0.0200000),(0.0564590,-0.0263703,-0.0200000),(0.0560553,-0.0280549,-0.0200000),(0.0560986,-0.0281144,-0.0200000),(0.0564590,-0.0263703,-0.0200000),(0.0560986,-0.0281144,-0.0200000),(0.0562462,-0.0281620,-0.0200000),(0.0564590,-0.0263703,-0.0200000),(0.0562462,-0.0281620,-0.0200000),(0.0563203,-0.0281501,-0.0200000),(0.0564590,-0.0263703,-0.0200000),(0.0563203,-0.0281501,-0.0200000),(0.0563804,-0.0281144,-0.0200000),(0.0564590,-0.0263703,-0.0200000),(0.0563804,-0.0281144,-0.0200000),(0.0564590,-0.0279715,-0.0200000),(0.0550704,-0.0263650,-0.0200000),(0.0550683,-0.0279715,-0.0200000),(0.0550844,-0.0280535,-0.0200000),(0.0550704,-0.0263650,-0.0200000),(0.0550844,-0.0280535,-0.0200000),(0.0551329,-0.0281218,-0.0200000),(0.0550704,-0.0263650,-0.0200000),(0.0551329,-0.0281218,-0.0200000),(0.0552017,-0.0281678,-0.0200000),(0.0550704,-0.0263650,-0.0200000),(0.0552017,-0.0281678,-0.0200000),(0.0552789,-0.0281832,-0.0200000),(0.0550704,-0.0263650,-0.0200000),(0.0552789,-0.0281832,-0.0200000),(0.0553617,-0.0281678,-0.0200000),(0.0550704,-0.0263650,-0.0200000),(0.0553617,-0.0281678,-0.0200000),(0.0554303,-0.0281218,-0.0200000),(0.0550704,-0.0263650,-0.0200000),(0.0554303,-0.0281218,-0.0200000),(0.0554763,-0.0280535,-0.0200000),(0.0550704,-0.0263650,-0.0200000),(0.0554763,-0.0280535,-0.0200000),(0.0554916,-0.0279715,-0.0200000),(0.0550704,-0.0263650,-0.0200000),(0.0554916,-0.0279715,-0.0200000),(0.0554916,-0.0243446,-0.0200000),(0.0550704,-0.0263650,-0.0200000),(0.0554916,-0.0243446,-0.0200000),(0.0554763,-0.0242631,-0.0200000),(0.0550704,-0.0263650,-0.0200000),(0.0554763,-0.0242631,-0.0200000),(0.0554303,-0.0241943,-0.0200000),(0.0550704,-0.0263650,-0.0200000),(0.0554303,-0.0241943,-0.0200000),(0.0553628,-0.0241467,-0.0200000),(0.0550704,-0.0263650,-0.0200000),(0.0553628,-0.0241467,-0.0200000),(0.0552832,-0.0241308,-0.0200000),(0.0550704,-0.0263650,-0.0200000),(0.0552832,-0.0241308,-0.0200000),(0.0552011,-0.0241472,-0.0200000),(0.0550704,-0.0263650,-0.0200000),(0.0552011,-0.0241472,-0.0200000),(0.0551308,-0.0241964,-0.0200000),(0.0550704,-0.0263650,-0.0200000),(0.0551308,-0.0241964,-0.0200000),(0.0550839,-0.0242610,-0.0200000),(0.0550704,-0.0263650,-0.0200000),(0.0550839,-0.0242610,-0.0200000),(0.0550683,-0.0243446,-0.0200000),(0.0550704,-0.0263650,-0.0200000),(0.0550683,-0.0243446,-0.0200000),(0.0550683,-0.0259437,-0.0200000),(0.0528691,-0.0263650,-0.0200000),(0.0550704,-0.0263650,-0.0200000),(0.0550683,-0.0259437,-0.0200000),(0.0528691,-0.0263650,-0.0200000),(0.0550683,-0.0259437,-0.0200000),(0.0528754,-0.0259437,-0.0200000),(0.0528691,-0.0263650,-0.0200000),(0.0528754,-0.0259437,-0.0200000),(0.0528754,-0.0243446,-0.0200000),(0.0528691,-0.0263650,-0.0200000),(0.0528754,-0.0243446,-0.0200000),(0.0528590,-0.0242631,-0.0200000),(0.0528691,-0.0263650,-0.0200000),(0.0528590,-0.0242631,-0.0200000),(0.0528098,-0.0241943,-0.0200000),(0.0528691,-0.0263650,-0.0200000),(0.0528098,-0.0241943,-0.0200000),(0.0527402,-0.0241467,-0.0200000),(0.0528691,-0.0263650,-0.0200000),(0.0527402,-0.0241467,-0.0200000),(0.0526627,-0.0241308,-0.0200000),(0.0528691,-0.0263650,-0.0200000),(0.0526627,-0.0241308,-0.0200000),(0.0525804,-0.0241467,-0.0200000),(0.0528691,-0.0263650,-0.0200000),(0.0525804,-0.0241467,-0.0200000),(0.0525093,-0.0241943,-0.0200000),(0.0528691,-0.0263650,-0.0200000),(0.0525093,-0.0241943,-0.0200000),(0.0524608,-0.0242631,-0.0200000),(0.0528691,-0.0263650,-0.0200000),(0.0524608,-0.0242631,-0.0200000),(0.0524447,-0.0243446,-0.0200000),(0.0528691,-0.0263650,-0.0200000),(0.0524447,-0.0243446,-0.0200000),(0.0524447,-0.0279715,-0.0200000),(0.0528691,-0.0263650,-0.0200000),(0.0524447,-0.0279715,-0.0200000),(0.0524603,-0.0280535,-0.0200000),(0.0528691,-0.0263650,-0.0200000),(0.0524603,-0.0280535,-0.0200000),(0.0525071,-0.0281218,-0.0200000),(0.0528691,-0.0263650,-0.0200000),(0.0525071,-0.0281218,-0.0200000),(0.0525767,-0.0281678,-0.0200000),(0.0528691,-0.0263650,-0.0200000),(0.0525767,-0.0281678,-0.0200000),(0.0526585,-0.0281832,-0.0200000),(0.0528691,-0.0263650,-0.0200000),(0.0526585,-0.0281832,-0.0200000),(0.0527363,-0.0281681,-0.0200000),(0.0528691,-0.0263650,-0.0200000),(0.0527363,-0.0281681,-0.0200000),(0.0528088,-0.0281229,-0.0200000),(0.0528691,-0.0263650,-0.0200000),(0.0528088,-0.0281229,-0.0200000),(0.0528540,-0.0280580,-0.0200000),(0.0528691,-0.0263650,-0.0200000),(0.0528540,-0.0280580,-0.0200000),(0.0528691,-0.0279715,-0.0200000),(0.0600509,-0.0266528,-0.0200000),(0.0600509,-0.0243446,-0.0200000),(0.0600356,-0.0242631,-0.0200000),(0.0600509,-0.0266528,-0.0200000),(0.0600356,-0.0242631,-0.0200000),(0.0599896,-0.0241943,-0.0200000),(0.0600509,-0.0266528,-0.0200000),(0.0599896,-0.0241943,-0.0200000),(0.0599221,-0.0241467,-0.0200000),(0.0600559,-0.0267653,-0.0200000),(0.0600509,-0.0266528,-0.0200000),(0.0599221,-0.0241467,-0.0200000),(0.0600559,-0.0267653,-0.0200000),(0.0599221,-0.0241467,-0.0200000),(0.0598425,-0.0241308,-0.0200000),(0.0600559,-0.0267653,-0.0200000),(0.0598425,-0.0241308,-0.0200000),(0.0597591,-0.0241472,-0.0200000),(0.0600559,-0.0267653,-0.0200000),(0.0597591,-0.0241472,-0.0200000),(0.0596848,-0.0241964,-0.0200000),(0.0600559,-0.0267653,-0.0200000),(0.0596848,-0.0241964,-0.0200000),(0.0596395,-0.0242610,-0.0200000),(0.0600559,-0.0267653,-0.0200000),(0.0596395,-0.0242610,-0.0200000),(0.0596244,-0.0243446,-0.0200000),(0.0600559,-0.0267653,-0.0200000),(0.0596244,-0.0243446,-0.0200000),(0.0596244,-0.0266528,-0.0200000),(0.0600559,-0.0267653,-0.0200000),(0.0596244,-0.0266528,-0.0200000),(0.0596314,-0.0268079,-0.0200000),(0.0600559,-0.0267653,-0.0200000),(0.0596314,-0.0268079,-0.0200000),(0.0596522,-0.0269573,-0.0200000),(0.0600559,-0.0267653,-0.0200000),(0.0596522,-0.0269573,-0.0200000),(0.0596869,-0.0271010,-0.0200000),(0.0600559,-0.0267653,-0.0200000),(0.0596869,-0.0271010,-0.0200000),(0.0597356,-0.0272389,-0.0200000),(0.0600559,-0.0267653,-0.0200000),(0.0597356,-0.0272389,-0.0200000),(0.0597981,-0.0273711,-0.0200000),(0.0600559,-0.0267653,-0.0200000),(0.0597981,-0.0273711,-0.0200000),(0.0598745,-0.0274976,-0.0200000),(0.0600559,-0.0267653,-0.0200000),(0.0598745,-0.0274976,-0.0200000),(0.0599648,-0.0276183,-0.0200000),(0.0600559,-0.0267653,-0.0200000),(0.0599648,-0.0276183,-0.0200000),(0.0600689,-0.0277334,-0.0200000),(0.0600559,-0.0267653,-0.0200000),(0.0600689,-0.0277334,-0.0200000),(0.0601815,-0.0278388,-0.0200000),(0.0601815,-0.0278388,-0.0200000),(0.0603002,-0.0279302,-0.0200000),(0.0604249,-0.0280075,-0.0200000),(0.0601815,-0.0278388,-0.0200000),(0.0604249,-0.0280075,-0.0200000),(0.0605558,-0.0280707,-0.0200000),(0.0601815,-0.0278388,-0.0200000),(0.0605558,-0.0280707,-0.0200000),(0.0606927,-0.0281199,-0.0200000),(0.0601815,-0.0278388,-0.0200000),(0.0606927,-0.0281199,-0.0200000),(0.0608357,-0.0281551,-0.0200000),(0.0601815,-0.0278388,-0.0200000),(0.0608357,-0.0281551,-0.0200000),(0.0609848,-0.0281762,-0.0200000),(0.0601815,-0.0278388,-0.0200000),(0.0609848,-0.0281762,-0.0200000),(0.0611400,-0.0281832,-0.0200000),(0.0601815,-0.0278388,-0.0200000),(0.0611400,-0.0281832,-0.0200000),(0.0612954,-0.0281762,-0.0200000),(0.0601815,-0.0278388,-0.0200000),(0.0612954,-0.0281762,-0.0200000),(0.0614451,-0.0281551,-0.0200000),(0.0601815,-0.0278388,-0.0200000),(0.0614451,-0.0281551,-0.0200000),(0.0615892,-0.0281199,-0.0200000),(0.0601815,-0.0278388,-0.0200000),(0.0615892,-0.0281199,-0.0200000),(0.0617276,-0.0280707,-0.0200000),(0.0601815,-0.0278388,-0.0200000),(0.0617276,-0.0280707,-0.0200000),(0.0618604,-0.0280075,-0.0200000),(0.0601815,-0.0278388,-0.0200000),(0.0618604,-0.0280075,-0.0200000),(0.0619875,-0.0279302,-0.0200000),(0.0601815,-0.0278388,-0.0200000),(0.0619875,-0.0279302,-0.0200000),(0.0621090,-0.0278388,-0.0200000),(0.0601815,-0.0278388,-0.0200000),(0.0621090,-0.0278388,-0.0200000),(0.0622248,-0.0277334,-0.0200000),(0.0622248,-0.0277334,-0.0200000),(0.0623294,-0.0276197,-0.0200000),(0.0624202,-0.0274998,-0.0200000),(0.0622248,-0.0277334,-0.0200000),(0.0624202,-0.0274998,-0.0200000),(0.0624969,-0.0273736,-0.0200000),(0.0622248,-0.0277334,-0.0200000),(0.0624969,-0.0273736,-0.0200000),(0.0625597,-0.0272413,-0.0200000),(0.0622248,-0.0277334,-0.0200000),(0.0625597,-0.0272413,-0.0200000),(0.0626086,-0.0271027,-0.0200000),(0.0622248,-0.0277334,-0.0200000),(0.0626086,-0.0271027,-0.0200000),(0.0626435,-0.0269579,-0.0200000),(0.0622248,-0.0277334,-0.0200000),(0.0626435,-0.0269579,-0.0200000),(0.0626644,-0.0268069,-0.0200000),(0.0622248,-0.0277334,-0.0200000),(0.0626644,-0.0268069,-0.0200000),(0.0626714,-0.0266497,-0.0200000),(0.0622248,-0.0277334,-0.0200000),(0.0626714,-0.0266497,-0.0200000),(0.0626714,-0.0243446,-0.0200000),(0.0622248,-0.0277334,-0.0200000),(0.0626714,-0.0243446,-0.0200000),(0.0626560,-0.0242631,-0.0200000),(0.0622248,-0.0277334,-0.0200000),(0.0626560,-0.0242631,-0.0200000),(0.0626100,-0.0241943,-0.0200000),(0.0622248,-0.0277334,-0.0200000),(0.0626100,-0.0241943,-0.0200000),(0.0625417,-0.0241467,-0.0200000),(0.0622248,-0.0277334,-0.0200000),(0.0625417,-0.0241467,-0.0200000),(0.0624597,-0.0241308,-0.0200000),(0.0622248,-0.0277334,-0.0200000),(0.0624597,-0.0241308,-0.0200000),(0.0623777,-0.0241467,-0.0200000),(0.0622248,-0.0277334,-0.0200000),(0.0623777,-0.0241467,-0.0200000),(0.0623094,-0.0241943,-0.0200000),(0.0623094,-0.0241943,-0.0200000),(0.0622634,-0.0242631,-0.0200000),(0.0622480,-0.0243446,-0.0200000),(0.0623094,-0.0241943,-0.0200000),(0.0622480,-0.0243446,-0.0200000),(0.0622480,-0.0266497,-0.0200000),(0.0622248,-0.0277334,-0.0200000),(0.0623094,-0.0241943,-0.0200000),(0.0622480,-0.0266497,-0.0200000),(0.0622248,-0.0277334,-0.0200000),(0.0622480,-0.0266497,-0.0200000),(0.0622429,-0.0267617,-0.0200000),(0.0622248,-0.0277334,-0.0200000),(0.0622429,-0.0267617,-0.0200000),(0.0622276,-0.0268697,-0.0200000),(0.0622248,-0.0277334,-0.0200000),(0.0622276,-0.0268697,-0.0200000),(0.0622021,-0.0269736,-0.0200000),(0.0622248,-0.0277334,-0.0200000),(0.0622021,-0.0269736,-0.0200000),(0.0621663,-0.0270735,-0.0200000),(0.0622248,-0.0277334,-0.0200000),(0.0621663,-0.0270735,-0.0200000),(0.0621203,-0.0271694,-0.0200000),(0.0622248,-0.0277334,-0.0200000),(0.0621203,-0.0271694,-0.0200000),(0.0620641,-0.0272612,-0.0200000),(0.0622248,-0.0277334,-0.0200000),(0.0620641,-0.0272612,-0.0200000),(0.0619977,-0.0273490,-0.0200000),(0.0622248,-0.0277334,-0.0200000),(0.0619977,-0.0273490,-0.0200000),(0.0619210,-0.0274328,-0.0200000),(0.0622248,-0.0277334,-0.0200000),(0.0619210,-0.0274328,-0.0200000),(0.0618391,-0.0275092,-0.0200000),(0.0622248,-0.0277334,-0.0200000),(0.0618391,-0.0275092,-0.0200000),(0.0617528,-0.0275754,-0.0200000),(0.0622248,-0.0277334,-0.0200000),(0.0617528,-0.0275754,-0.0200000),(0.0616620,-0.0276315,-0.0200000),(0.0622248,-0.0277334,-0.0200000),(0.0616620,-0.0276315,-0.0200000),(0.0615667,-0.0276773,-0.0200000),(0.0622248,-0.0277334,-0.0200000),(0.0615667,-0.0276773,-0.0200000),(0.0614670,-0.0277130,-0.0200000),(0.0622248,-0.0277334,-0.0200000),(0.0614670,-0.0277130,-0.0200000),(0.0613628,-0.0277384,-0.0200000),(0.0622248,-0.0277334,-0.0200000),(0.0613628,-0.0277384,-0.0200000),(0.0612542,-0.0277537,-0.0200000),(0.0601815,-0.0278388,-0.0200000),(0.0622248,-0.0277334,-0.0200000),(0.0612542,-0.0277537,-0.0200000),(0.0601815,-0.0278388,-0.0200000),(0.0612542,-0.0277537,-0.0200000),(0.0611410,-0.0277588,-0.0200000),(0.0601815,-0.0278388,-0.0200000),(0.0611410,-0.0277588,-0.0200000),(0.0610299,-0.0277537,-0.0200000),(0.0601815,-0.0278388,-0.0200000),(0.0610299,-0.0277537,-0.0200000),(0.0609229,-0.0277385,-0.0200000),(0.0601815,-0.0278388,-0.0200000),(0.0609229,-0.0277385,-0.0200000),(0.0608202,-0.0277132,-0.0200000),(0.0601815,-0.0278388,-0.0200000),(0.0608202,-0.0277132,-0.0200000),(0.0607217,-0.0276778,-0.0200000),(0.0601815,-0.0278388,-0.0200000),(0.0607217,-0.0276778,-0.0200000),(0.0606273,-0.0276323,-0.0200000),(0.0601815,-0.0278388,-0.0200000),(0.0606273,-0.0276323,-0.0200000),(0.0605372,-0.0275766,-0.0200000),(0.0601815,-0.0278388,-0.0200000),(0.0605372,-0.0275766,-0.0200000),(0.0604512,-0.0275108,-0.0200000),(0.0601815,-0.0278388,-0.0200000),(0.0604512,-0.0275108,-0.0200000),(0.0603695,-0.0274349,-0.0200000),(0.0601815,-0.0278388,-0.0200000),(0.0603695,-0.0274349,-0.0200000),(0.0602948,-0.0273519,-0.0200000),(0.0601815,-0.0278388,-0.0200000),(0.0602948,-0.0273519,-0.0200000),(0.0602301,-0.0272646,-0.0200000),(0.0601815,-0.0278388,-0.0200000),(0.0602301,-0.0272646,-0.0200000),(0.0601754,-0.0271732,-0.0200000),(0.0601815,-0.0278388,-0.0200000),(0.0601754,-0.0271732,-0.0200000),(0.0601306,-0.0270775,-0.0200000),(0.0601815,-0.0278388,-0.0200000),(0.0601306,-0.0270775,-0.0200000),(0.0600957,-0.0269776,-0.0200000),(0.0601815,-0.0278388,-0.0200000),(0.0600957,-0.0269776,-0.0200000),(0.0600709,-0.0268736,-0.0200000),(0.0600559,-0.0267653,-0.0200000),(0.0601815,-0.0278388,-0.0200000),(0.0600709,-0.0268736,-0.0200000),(0.0518486,-0.0245042,-0.0200000),(0.0519018,-0.0243446,-0.0200000),(0.0518867,-0.0242647,-0.0200000),(0.0518486,-0.0245042,-0.0200000),(0.0518867,-0.0242647,-0.0200000),(0.0518415,-0.0241964,-0.0200000),(0.0518486,-0.0245042,-0.0200000),(0.0518415,-0.0241964,-0.0200000),(0.0517732,-0.0241472,-0.0200000),(0.0518486,-0.0245042,-0.0200000),(0.0517732,-0.0241472,-0.0200000),(0.0516891,-0.0241308,-0.0200000),(0.0518486,-0.0245042,-0.0200000),(0.0516891,-0.0241308,-0.0200000),(0.0490686,-0.0241308,-0.0200000),(0.0518486,-0.0245042,-0.0200000),(0.0490686,-0.0241308,-0.0200000),(0.0489755,-0.0241512,-0.0200000),(0.0518486,-0.0245042,-0.0200000),(0.0489755,-0.0241512,-0.0200000),(0.0489014,-0.0242123,-0.0200000),(0.0518486,-0.0245042,-0.0200000),(0.0489014,-0.0242123,-0.0200000),(0.0488548,-0.0243446,-0.0200000),(0.0518486,-0.0245042,-0.0200000),(0.0488548,-0.0243446,-0.0200000),(0.0488548,-0.0243605,-0.0200000),(0.0518486,-0.0245042,-0.0200000),(0.0488548,-0.0243605,-0.0200000),(0.0489152,-0.0244896,-0.0200000),(0.0518486,-0.0245042,-0.0200000),(0.0489152,-0.0244896,-0.0200000),(0.0489863,-0.0245404,-0.0200000),(0.0518486,-0.0245042,-0.0200000),(0.0489863,-0.0245404,-0.0200000),(0.0490686,-0.0245573,-0.0200000),(0.0518486,-0.0245042,-0.0200000),(0.0490686,-0.0245573,-0.0200000),(0.0501682,-0.0245573,-0.0200000),(0.0501682,-0.0245573,-0.0200000),(0.0501682,-0.0279715,-0.0200000),(0.0501836,-0.0280535,-0.0200000),(0.0501682,-0.0245573,-0.0200000),(0.0501836,-0.0280535,-0.0200000),(0.0502296,-0.0281218,-0.0200000),(0.0501682,-0.0245573,-0.0200000),(0.0502296,-0.0281218,-0.0200000),(0.0502979,-0.0281678,-0.0200000),(0.0501682,-0.0245573,-0.0200000),(0.0502979,-0.0281678,-0.0200000),(0.0503799,-0.0281832,-0.0200000),(0.0501682,-0.0245573,-0.0200000),(0.0503799,-0.0281832,-0.0200000),(0.0504619,-0.0281678,-0.0200000),(0.0501682,-0.0245573,-0.0200000),(0.0504619,-0.0281678,-0.0200000),(0.0505302,-0.0281218,-0.0200000),(0.0501682,-0.0245573,-0.0200000),(0.0505302,-0.0281218,-0.0200000),(0.0505762,-0.0280535,-0.0200000),(0.0501682,-0.0245573,-0.0200000),(0.0505762,-0.0280535,-0.0200000),(0.0505916,-0.0279715,-0.0200000),(0.0501682,-0.0245573,-0.0200000),(0.0505916,-0.0279715,-0.0200000),(0.0505916,-0.0245573,-0.0200000),(0.0518486,-0.0245042,-0.0200000),(0.0501682,-0.0245573,-0.0200000),(0.0505916,-0.0245573,-0.0200000),(0.0518486,-0.0245042,-0.0200000),(0.0505916,-0.0245573,-0.0200000),(0.0516891,-0.0245573,-0.0200000),(0.0518486,-0.0245042,-0.0200000),(0.0516891,-0.0245573,-0.0200000),(0.0517821,-0.0245440,-0.0200000)));
#375=COMPLEX_TRIANGULATED_SURFACE_SET('surface set',#374,1710,(),(),(),((1,2,3),(4,5,6),(7,8,9),(10,11,12),(13,14,15),(16,17,18),(19,20,21),(22,23,24),(25,26,27),(28,29,30),(31,32,33),(34,35,36),(37,38,39),(40,41,42),(43,44,45),(46,47,48),(49,50,51),(52,53,54),(55,56,57),(58,59,60),(61,62,63),(64,65,66),(67,68,69),(70,71,72),(73,74,75),(76,77,78),(79,80,81),(82,83,84),(85,86,87),(88,89,90),(91,92,93),(94,95,96),(97,98,99),(100,101,102),(103,104,105),(106,107,108),(109,110,111),(112,113,114),(115,116,117),(118,119,120),(121,122,123),(124,125,126),(127,128,129),(130,131,132),(133,134,135),(136,137,138),(139,140,141),(142,143,144),(145,146,147),(148,149,150),(151,152,153),(154,155,156),(157,158,159),(160,161,162),(163,164,165),(166,167,168),(169,170,171),(172,173,174),(175,176,177),(178,179,180),(181,182,183),(184,185,186),(187,188,189),(190,191,192),(193,194,195),(196,197,198),(199,200,201),(202,203,204),(205,206,207),(208,209,210),(211,212,213),(214,215,216),(217,218,219),(220,221,222),(223,224,225),(226,227,228),(229,230,231),(232,233,234),(235,236,237),(238,239,240),(241,242,243),(244,245,246),(247,248,249),(250,251,252),(253,254,255),(256,257,258),(259,260,261),(262,263,264),(265,266,267),(268,269,270),(271,272,273),(274,275,276),(277,278,279),(280,281,282),(283,284,285),(286,287,288),(289,290,291),(292,293,294),(295,296,297),(298,299,300),(301,302,303),(304,305,306),(307,308,309),(310,311,312),(313,314,315),(316,317,318),(319,320,321),(322,323,324),(325,326,327),(328,329,330),(331,332,333),(334,335,336),(337,338,339),(340,341,342),(343,344,345),(346,347,348),(349,350,351),(352,353,354),(355,356,357),(358,359,360),(361,362,363),(364,365,366),(367,368,369),(370,371,372),(373,374,375),(376,377,378),(379,380,381),(382,383,384),(385,386,387),(388,389,390),(391,392,393),(394,395,396),(397,398,399),(400,401,402),(403,404,405),(406,407,408),(409,410,411),(412,413,414),(415,416,417),(418,419,420),(421,422,423),(424,425,426),(427,428,429),(430,431,432),(433,434,435),(436,437,438),(439,440,441),(442,443,444),(445,446,447),(448,449,450),(451,452,453),(454,455,456),(457,458,459),(460,461,462),(463,464,465),(466,467,468),(469,470,471),(472,473,474),(475,476,477),(478,479,480),(481,482,483),(484,485,486),(487,488,489),(490,491,492),(493,494,495),(496,497,498),(499,500,501),(502,503,504),(505,506,507),(508,509,510),(511,512,513),(514,515,516),(517,518,519),(520,521,522),(523,524,525),(526,527,528),(529,530,531),(532,533,534),(535,536,537),(538,539,540),(541,542,543),(544,545,546),(547,548,549),(550,551,552),(553,554,555),(556,557,558),(559,560,561),(562,563,564),(565,566,567),(568,569,570),(571,572,573),(574,575,576),(577,578,579),(580,581,582),(583,584,585),(586,587,588),(589,590,591),(592,593,594),(595,596,597),(598,599,600),(601,602,603),(604,605,606),(607,608,609),(610,611,612),(613,614,615),(616,617,618),(619,620,621),(622,623,624),(625,626,627),(628,629,630),(631,632,633),(634,635,636),(637,638,639),(640,641,642),(643,644,645),(646,647,648),(649,650,651),(652,653,654),(655,656,657),(658,659,660),(661,662,663),(664,665,666),(667,668,669),(670,671,672),(673,674,675),(676,677,678),(679,680,681),(682,683,684),(685,686,687),(688,689,690),(691,692,693),(694,695,696),(697,698,699),(700,701,702),(703,704,705),(706,707,708),(709,710,711),(712,713,714),(715,716,717),(718,719,720),(721,722,723),(724,725,726),(727,728,729),(730,731,732),(733,734,735),(736,737,738),(739,740,741),(742,743,744),(745,746,747),(748,749,750),(751,752,753),(754,755,756),(757,758,759),(760,761,762),(763,764,765),(766,767,768),(769,770,771),(772,773,774),(775,776,777),(778,779,780),(781,782,783),(784,785,786),(787,788,789),(790,791,792),(793,794,795),(796,797,798),(799,800,801),(802,803,804),(805,806,807),(808,809,810),(811,812,813),(814,815,816),(817,818,819),(820,821,822),(823,824,825),(826,827,828),(829,830,831),(832,833,834),(835,836,837),(838,839,840),(841,842,843),(844,845,846),(847,848,849),(850,851,852),(853,854,855),(856,857,858),(859,860,861),(862,863,864),(865,866,867),(868,869,870),(871,872,873),(874,875,876),(877,878,879),(880,881,882),(883,884,885),(886,887,888),(889,890,891),(892,893,894),(895,896,897),(898,899,900),(901,902,903),(904,905,906),(907,908,909),(910,911,912),(913,914,915),(916,917,918),(919,920,921),(922,923,924),(925,926,927),(928,929,930),(931,932,933),(934,935,936),(937,938,939),(940,941,942),(943,944,945),(946,947,948),(949,950,951),(952,953,954),(955,956,957),(958,959,960),(961,962,963),(964,965,966),(967,968,969),(970,971,972),(973,974,975),(976,977,978),(979,980,981),(982,983,984),(985,986,987),(988,989,990),(991,992,993),(994,995,996),(997,998,999),(1000,1001,1002),(1003,1004,1005),(1006,1007,1008),(1009,1010,1011),(1012,1013,1014),(1015,1016,1017),(1018,1019,1020),(1021,1022,1023),(1024,1025,1026),(1027,1028,1029),(1030,1031,1032),(1033,1034,1035),(1036,1037,1038),(1039,1040,1041),(1042,1043,1044),(1045,1046,1047),(1048,1049,1050),(1051,1052,1053),(1054,1055,1056),(1057,1058,1059),(1060,1061,1062),(1063,1064,1065),(1066,1067,1068),(1069,1070,1071),(1072,1073,1074),(1075,1076,1077),(1078,1079,1080),(1081,1082,1083),(1084,1085,1086),(1087,1088,1089),(1090,1091,1092),(1093,1094,1095),(1096,1097,1098),(1099,1100,1101),(1102,1103,1104),(1105,1106,1107),(1108,1109,1110),(1111,1112,1113),(1114,1115,1116),(1117,1118,1119),(1120,1121,1122),(1123,1124,1125),(1126,1127,1128),(1129,1130,1131),(1132,1133,1134),(1135,1136,1137),(1138,1139,1140),(1141,1142,1143),(1144,1145,1146),(1147,1148,1149),(1150,1151,1152),(1153,1154,1155),(1156,1157,1158),(1159,1160,1161),(1162,1163,1164),(1165,1166,1167),(1168,1169,1170),(1171,1172,1173),(1174,1175,1176),(1177,1178,1179),(1180,1181,1182),(1183,1184,1185),(1186,1187,1188),(1189,1190,1191),(1192,1193,1194),(1195,1196,1197),(1198,1199,1200),(1201,1202,1203),(1204,1205,1206),(1207,1208,1209),(1210,1211,1212),(1213,1214,1215),(1216,1217,1218),(1219,1220,1221),(1222,1223,1224),(1225,1226,1227),(1228,1229,1230),(1231,1232,1233),(1234,1235,1236),(1237,1238,1239),(1240,1241,1242),(1243,1244,1245),(1246,1247,1248),(1249,1250,1251),(1252,1253,1254),(1255,1256,1257),(1258,1259,1260),(1261,1262,1263),(1264,1265,1266),(1267,1268,1269),(1270,1271,1272),(1273,1274,1275),(1276,1277,1278),(1279,1280,1281),(1282,1283,1284),(1285,1286,1287),(1288,1289,1290),(1291,1292,1293),(1294,1295,1296),(1297,1298,1299),(1300,1301,1302),(1303,1304,1305),(1306,1307,1308),(1309,1310,1311),(1312,1313,1314),(1315,1316,1317),(1318,1319,1320),(1321,1322,1323),(1324,1325,1326),(1327,1328,1329),(1330,1331,1332),(1333,1334,1335),(1336,1337,1338),(1339,1340,1341),(1342,1343,1344),(1345,1346,1347),(1348,1349,1350),(1351,1352,1353),(1354,1355,1356),(1357,1358,1359),(1360,1361,1362),(1363,1364,1365),(1366,1367,1368),(1369,1370,1371),(1372,1373,1374),(1375,1376,1377),(1378,1379,1380),(1381,1382,1383),(1384,1385,1386),(1387,1388,1389),(1390,1391,1392),(1393,1394,1395),(1396,1397,1398),(1399,1400,1401),(1402,1403,1404),(1405,1406,1407),(1408,1409,1410),(1411,1412,1413),(1414,1415,1416),(1417,1418,1419),(1420,1421,1422),(1423,1424,1425),(1426,1427,1428),(1429,1430,1431),(1432,1433,1434),(1435,1436,1437),(1438,1439,1440),(1441,1442,1443),(1444,1445,1446),(1447,1448,1449),(1450,1451,1452),(1453,1454,1455),(1456,1457,1458),(1459,1460,1461),(1462,1463,1464),(1465,1466,1467),(1468,1469,1470),(1471,1472,1473),(1474,1475,1476),(1477,1478,1479),(1480,1481,1482),(1483,1484,1485),(1486,1487,1488),(1489,1490,1491),(1492,1493,1494),(1495,1496,1497),(1498,1499,1500),(1501,1502,1503),(1504,1505,1506),(1507,1508,1509),(1510,1511,1512),(1513,1514,1515),(1516,1517,1518),(1519,1520,1521),(1522,1523,1524),(1525,1526,1527),(1528,1529,1530),(1531,1532,1533),(1534,1535,1536),(1537,1538,1539),(1540,1541,1542),(1543,1544,1545),(1546,1547,1548),(1549,1550,1551),(1552,1553,1554),(1555,1556,1557),(1558,1559,1560),(1561,1562,1563),(1564,1565,1566),(1567,1568,1569),(1570,1571,1572),(1573,1574,1575),(1576,1577,1578),(1579,1580,1581),(1582,1583,1584),(1585,1586,1587),(1588,1589,1590),(1591,1592,1593),(1594,1595,1596),(1597,1598,1599),(1600,1601,1602),(1603,1604,1605),(1606,1607,1608),(1609,1610,1611),(1612,1613,1614),(1615,1616,1617),(1618,1619,1620),(1621,1622,1623),(1624,1625,1626),(1627,1628,1629),(1630,1631,1632),(1633,1634,1635),(1636,1637,1638),(1639,1640,1641),(1642,1643,1644),(1645,1646,1647),(1648,1649,1650),(1651,1652,1653),(1654,1655,1656),(1657,1658,1659),(1660,1661,1662),(1663,1664,1665),(1666,1667,1668),(1669,1670,1671),(1672,1673,1674),(1675,1676,1677),(1678,1679,1680),(1681,1682,1683),(1684,1685,1686),(1687,1688,1689),(1690,1691,1692),(1693,1694,1695),(1696,1697,1698),(1699,1700,1701),(1702,1703,1704),(1705,1706,1707),(1708,1709,1710)));
#376=TESSELLATED_GEOMETRIC_SET('hole callout',(#375));
#377=COORDINATES_LIST('coordinates',5,((0.0366817,-0.0307203,-0.0200000),(0.0626714,-0.0307203,-0.0200000),(0.0280817,-0.0343203,-0.0200000),(0.0316817,-0.0307203,-0.0200000),(0.0366817,-0.0307203,-0.0200000)));
#378=TESSELLATED_CURVE_SET('curve set',#377,((1,2),(3,4,5)));
#379=TESSELLATED_GEOMETRIC_SET('hole callout',(#378));
#380=TESSELLATED_ANNOTATION_OCCURRENCE('hole callout',(#373),#376);
#381=TESSELLATED_ANNOTATION_OCCURRENCE('hole callout',(#373),#379);
#382=DRAUGHTING_CALLOUT('hole callout',(#380,#381));
#383=DRAUGHTING_MODEL_ITEM_ASSOCIATION('','',#341,#369,#382);
#384=DRAUGHTING_MODEL_ITEM_ASSOCIATION('','',#328,#369,#382);
ENDSEC;
END-ISO-10303-21;
