ISO-10303-21;
HEADER;
/*Generated by software containing ST-Developer
 * from STEP Tools, Inc. (www.steptools.com) 
 */
/*OPTION: using custom renumber hook */
/*description */
/*implementation_level */
FILE_DESCRIPTION(('STEP AP242 Edition 2','STEP AP242 Edition 2''CAx-IF Rec.Pracs.---Representation and Presentation of Product Manufa
cturing Information (PMI)---4.0---2014-10-13','STEP AP242 Edition 2''CAx-IF Rec.Pracs.---Representation and Presentation of Product Manufa
cturing Information (PMI)---4.0---2014-10-13''CAx-IF Rec.Pracs.---3D Tessellated Geometry---0.4---2014-09-14','STEP AP242 Edition 2''CAx-IF Rec.Pracs.---Representation and Presentation of Product Manufa
cturing Information (PMI)---4.0---2014-10-13''CAx-IF Rec.Pracs.---3D Tessellated Geometry---0.4---2014-09-14''2;1','STEP AP242 Edition 2''CAx-IF Rec.Pracs.---Representation and Presentation of Product Manufa
cturing Information (PMI)---4.0---2014-10-13''CAx-IF Rec.Pracs.---3D Tessellated Geometry---0.4---2014-09-14''2;1''CAx-IF Rec.Pracs.---User Defined Attributes---1.5---2016-08-15'),'2;1');
/*name */
/*time_stamp */
/*author */
/*organization */
/*preprocessor_version */
/*originating_system */
/*authorisation */
FILE_NAME('/vol/tmp/translate-14796478662686847986/3D_PCB_PCB_ESP32-sd-int_2026-03-29nosilk Copy 1 - Knob.step','2026-05-03T09:34:01',(''),(''),'ST-DEVELOPER v20','ONSHAPE BY PTC INC, 1.214','  ');
FILE_SCHEMA(('AP242_MANAGED_MODEL_BASED_3D_ENGINEERING_MIM_LF { 1 0 10303 442 3 1 4 }'));
ENDSEC;
DATA;
#10=SHAPE_REPRESENTATION_RELATIONSHIP('','',#104,#11);
#11=ADVANCED_BREP_SHAPE_REPRESENTATION('',(#102),#173);
#12=CONICAL_SURFACE('',#111,0.00625,0.122173047639603);
#13=CYLINDRICAL_SURFACE('',#109,0.00775);
#14=CYLINDRICAL_SURFACE('',#115,0.00310944745025403);
#15=LINE('',#155,#19);
#16=LINE('',#164,#20);
#17=LINE('',#166,#21);
#18=LINE('',#168,#22);
#19=VECTOR('',#126,1.);
#20=VECTOR('',#139,1.);
#21=VECTOR('',#140,1.);
#22=VECTOR('',#141,1.);
#23=ORIENTED_EDGE('',*,*,#41,.T.);
#24=ORIENTED_EDGE('',*,*,#42,.F.);
#25=ORIENTED_EDGE('',*,*,#43,.T.);
#26=ORIENTED_EDGE('',*,*,#41,.F.);
#27=ORIENTED_EDGE('',*,*,#44,.F.);
#28=ORIENTED_EDGE('',*,*,#45,.F.);
#29=ORIENTED_EDGE('',*,*,#44,.T.);
#30=ORIENTED_EDGE('',*,*,#45,.T.);
#31=ORIENTED_EDGE('',*,*,#43,.F.);
#32=ORIENTED_EDGE('',*,*,#46,.F.);
#33=ORIENTED_EDGE('',*,*,#47,.T.);
#34=ORIENTED_EDGE('',*,*,#48,.T.);
#35=ORIENTED_EDGE('',*,*,#42,.T.);
#36=ORIENTED_EDGE('',*,*,#48,.F.);
#37=ORIENTED_EDGE('',*,*,#49,.F.);
#38=ORIENTED_EDGE('',*,*,#46,.T.);
#39=ORIENTED_EDGE('',*,*,#47,.F.);
#40=ORIENTED_EDGE('',*,*,#49,.T.);
#41=EDGE_CURVE('',#50,#50,#57,.T.);
#42=EDGE_CURVE('',#51,#52,#58,.T.);
#43=EDGE_CURVE('',#51,#52,#15,.T.);
#44=EDGE_CURVE('',#53,#53,#59,.F.);
#45=EDGE_CURVE('',#54,#54,#60,.T.);
#46=EDGE_CURVE('',#55,#51,#16,.T.);
#47=EDGE_CURVE('',#55,#56,#17,.T.);
#48=EDGE_CURVE('',#56,#52,#18,.T.);
#49=EDGE_CURVE('',#55,#56,#61,.T.);
#50=VERTEX_POINT('',#151);
#51=VERTEX_POINT('',#153);
#52=VERTEX_POINT('',#154);
#53=VERTEX_POINT('',#158);
#54=VERTEX_POINT('',#161);
#55=VERTEX_POINT('',#165);
#56=VERTEX_POINT('',#167);
#57=CIRCLE('',#107,0.00775);
#58=CIRCLE('',#108,0.00310944745025403);
#59=CIRCLE('',#110,0.00775);
#60=CIRCLE('',#112,0.00625);
#61=CIRCLE('',#116,0.00310944745025403);
#62=EDGE_LOOP('',(#23));
#63=EDGE_LOOP('',(#24,#25));
#64=EDGE_LOOP('',(#26));
#65=EDGE_LOOP('',(#27));
#66=EDGE_LOOP('',(#28));
#67=EDGE_LOOP('',(#29));
#68=EDGE_LOOP('',(#30));
#69=EDGE_LOOP('',(#31,#32,#33,#34));
#70=EDGE_LOOP('',(#35,#36,#37,#38));
#71=EDGE_LOOP('',(#39,#40));
#72=FACE_BOUND('',#62,.T.);
#73=FACE_BOUND('',#63,.T.);
#74=FACE_BOUND('',#64,.T.);
#75=FACE_BOUND('',#65,.T.);
#76=FACE_BOUND('',#66,.T.);
#77=FACE_BOUND('',#67,.T.);
#78=FACE_BOUND('',#68,.T.);
#79=FACE_BOUND('',#69,.T.);
#80=FACE_BOUND('',#70,.T.);
#81=FACE_BOUND('',#71,.T.);
#82=PLANE('',#106);
#83=PLANE('',#113);
#84=PLANE('',#114);
#85=PLANE('',#117);
#86=ADVANCED_FACE('',(#72,#73),#82,.T.);
#87=ADVANCED_FACE('',(#74,#75),#13,.T.);
#88=ADVANCED_FACE('',(#76,#77),#12,.T.);
#89=ADVANCED_FACE('',(#78),#83,.T.);
#90=ADVANCED_FACE('',(#79),#84,.T.);
#91=ADVANCED_FACE('',(#80),#14,.F.);
#92=ADVANCED_FACE('',(#81),#85,.T.);
#93=CLOSED_SHELL('',(#86,#87,#88,#89,#90,#91,#92));
#94=STYLED_ITEM('',(#95),#102);
#95=PRESENTATION_STYLE_ASSIGNMENT((#96));
#96=SURFACE_STYLE_USAGE(.BOTH.,#97);
#97=SURFACE_SIDE_STYLE('',(#98));
#98=SURFACE_STYLE_FILL_AREA(#99);
#99=FILL_AREA_STYLE('',(#100));
#100=FILL_AREA_STYLE_COLOUR('',#101);
#101=COLOUR_RGB('',0.149019607843137,0.145098039215686,0.145098039215686);
#102=MANIFOLD_SOLID_BREP('Knob',#93);
#103=SHAPE_DEFINITION_REPRESENTATION(#178,#104);
#104=SHAPE_REPRESENTATION('Knob',(#105),#173);
#105=AXIS2_PLACEMENT_3D('',#148,#118,#119);
#106=AXIS2_PLACEMENT_3D('',#149,#120,#121);
#107=AXIS2_PLACEMENT_3D('',#150,#122,#123);
#108=AXIS2_PLACEMENT_3D('',#152,#124,#125);
#109=AXIS2_PLACEMENT_3D('',#156,#127,#128);
#110=AXIS2_PLACEMENT_3D('',#157,#129,#130);
#111=AXIS2_PLACEMENT_3D('',#159,#131,#132);
#112=AXIS2_PLACEMENT_3D('',#160,#133,#134);
#113=AXIS2_PLACEMENT_3D('',#162,#135,#136);
#114=AXIS2_PLACEMENT_3D('',#163,#137,#138);
#115=AXIS2_PLACEMENT_3D('',#169,#142,#143);
#116=AXIS2_PLACEMENT_3D('',#170,#144,#145);
#117=AXIS2_PLACEMENT_3D('',#171,#146,#147);
#118=DIRECTION('',(0.,0.,1.));
#119=DIRECTION('',(1.,0.,0.));
#120=DIRECTION('',(2.81089452125871E-16,6.12323399573677E-17,-1.));
#121=DIRECTION('',(-1.,2.81089452125871E-16,-2.81089452125871E-16));
#122=DIRECTION('',(2.81089452125871E-16,6.12323399573677E-17,-1.));
#123=DIRECTION('',(2.81089452125871E-16,1.,6.12323399573677E-17));
#124=DIRECTION('',(2.81089452125871E-16,6.12323399573677E-17,-1.));
#125=DIRECTION('',(2.81089452125871E-16,1.,6.12323399573677E-17));
#126=DIRECTION('',(-1.,2.81089452125871E-16,-2.81089452125871E-16));
#127=DIRECTION('',(2.81089452125871E-16,6.12323399573677E-17,-1.));
#128=DIRECTION('',(2.81089452125871E-16,1.,6.12323399573677E-17));
#129=DIRECTION('',(2.81089452125871E-16,6.12323399573677E-17,-1.));
#130=DIRECTION('',(2.81089452125871E-16,1.,6.12323399573677E-17));
#131=DIRECTION('',(2.81089452125871E-16,6.12323399573677E-17,-1.));
#132=DIRECTION('',(-2.81089452125871E-16,-1.,-6.12323399573677E-17));
#133=DIRECTION('',(-2.81089452125871E-16,-6.12323399573677E-17,1.));
#134=DIRECTION('',(-2.81089452125871E-16,-1.,-6.12323399573677E-17));
#135=DIRECTION('',(-2.81089452125871E-16,-6.12323399573677E-17,1.));
#136=DIRECTION('',(1.,-2.81089452125871E-16,2.81089452125871E-16));
#137=DIRECTION('',(-2.81089452125871E-16,-1.,-6.12323399573677E-17));
#138=DIRECTION('',(-1.,2.81089452125871E-16,-2.81089452125871E-16));
#139=DIRECTION('',(2.81089452125871E-16,6.12323399573677E-17,-1.));
#140=DIRECTION('',(-1.,2.81089452125871E-16,-2.81089452125871E-16));
#141=DIRECTION('',(2.81089452125871E-16,6.12323399573677E-17,-1.));
#142=DIRECTION('',(2.81089452125871E-16,6.12323399573677E-17,-1.));
#143=DIRECTION('',(2.81089452125871E-16,1.,6.12323399573677E-17));
#144=DIRECTION('',(2.81089452125871E-16,6.12323399573677E-17,-1.));
#145=DIRECTION('',(2.81089452125871E-16,1.,6.12323399573677E-17));
#146=DIRECTION('',(2.81089452125871E-16,6.12323399573677E-17,-1.));
#147=DIRECTION('',(-1.,2.81089452125871E-16,-2.81089452125871E-16));
#148=CARTESIAN_POINT('',(0.,0.,0.));
#149=CARTESIAN_POINT('',(-0.0103689022417631,-0.0543716932457479,0.00157169324574784));
#150=CARTESIAN_POINT('',(-0.0217234451337493,-0.0543716932457478,0.00157169324574784));
#151=CARTESIAN_POINT('',(-0.0217234451337493,-0.0466216932457478,0.00157169324574784));
#152=CARTESIAN_POINT('',(-0.0218016965806484,-0.0543422916215461,0.00157169324574784));
#153=CARTESIAN_POINT('',(-0.0191016965806485,-0.0528,0.00157169324574784));
#154=CARTESIAN_POINT('',(-0.0245016965806484,-0.0528,0.00157169324574784));
#155=CARTESIAN_POINT('',(-0.0218016965806484,-0.0528,0.00157169324574784));
#156=CARTESIAN_POINT('',(-0.0217234451337493,-0.0543716932457478,0.00257169324574784));
#157=CARTESIAN_POINT('',(-0.0217234451337493,-0.0543716932457478,0.00335517360378596));
#158=CARTESIAN_POINT('',(-0.0217234451337493,-0.0466216932457478,0.00335517360378596));
#159=CARTESIAN_POINT('',(-0.0217234451337493,-0.0543716932457478,0.0155716932457479));
#160=CARTESIAN_POINT('',(-0.0217234451337493,-0.0543716932457478,0.0155716932457479));
#161=CARTESIAN_POINT('',(-0.0217234451337494,-0.0606216932457478,0.0155716932457479));
#162=CARTESIAN_POINT('',(-0.0217234451337493,-0.0543716932457479,0.0155716932457479));
#163=CARTESIAN_POINT('',(-0.0218016965806484,-0.0528,0.0115716932457478));
#164=CARTESIAN_POINT('',(-0.0191016965806485,-0.0528,0.0115716932457478));
#165=CARTESIAN_POINT('',(-0.0191016965806485,-0.0528,0.0115716932457478));
#166=CARTESIAN_POINT('',(-0.0218016965806484,-0.0528,0.0115716932457478));
#167=CARTESIAN_POINT('',(-0.0245016965806484,-0.0528,0.0115716932457478));
#168=CARTESIAN_POINT('',(-0.0245016965806484,-0.0528,0.0115716932457478));
#169=CARTESIAN_POINT('',(-0.0218016965806484,-0.0543422916215461,0.0115716932457478));
#170=CARTESIAN_POINT('',(-0.0218016965806484,-0.0543422916215461,0.0115716932457478));
#171=CARTESIAN_POINT('',(-0.0217234451337493,-0.0543716932457479,0.0115716932457478));
#172=MECHANICAL_DESIGN_GEOMETRIC_PRESENTATION_REPRESENTATION('',(#94),#173);
#173=(
GEOMETRIC_REPRESENTATION_CONTEXT(3)
GLOBAL_UNCERTAINTY_ASSIGNED_CONTEXT((#174))
GLOBAL_UNIT_ASSIGNED_CONTEXT((#177,#176,#175))
REPRESENTATION_CONTEXT('Knob','TOP_LEVEL_ASSEMBLY_PART')
);
#174=UNCERTAINTY_MEASURE_WITH_UNIT(LENGTH_MEASURE(1.E-08),#177,'DISTANCE_ACCURACY_VALUE','Maximum Tolerance applied to model');
#175=(
NAMED_UNIT(*)
SI_UNIT($,.STERADIAN.)
SOLID_ANGLE_UNIT()
);
#176=(
NAMED_UNIT(*)
PLANE_ANGLE_UNIT()
SI_UNIT($,.RADIAN.)
);
#177=(
LENGTH_UNIT()
NAMED_UNIT(*)
SI_UNIT($,.METRE.)
);
#178=PRODUCT_DEFINITION_SHAPE('','',#179);
#179=PRODUCT_DEFINITION('','',#181,#180);
#180=PRODUCT_DEFINITION_CONTEXT('',#187,'design');
#181=PRODUCT_DEFINITION_FORMATION_WITH_SPECIFIED_SOURCE('','',#183,.NOT_KNOWN.);
#182=PRODUCT_RELATED_PRODUCT_CATEGORY('','',(#183));
#183=PRODUCT('Knob','Knob','Knob',(#185));
#184=PRODUCT_CATEGORY('','');
#185=PRODUCT_CONTEXT('',#187,'mechanical');
#186=APPLICATION_PROTOCOL_DEFINITION('international standard','ap242_managed_model_based_3d_engineering',2020,#187);
#187=APPLICATION_CONTEXT('managed model based 3d engineering');
ENDSEC;
END-ISO-10303-21;
